<?xml version="1.0" encoding="UTF-8"?>
<svg viewBox="0 0 640 480" xmlns="http://www.w3.org/2000/svg">
 <path d="m382.32 456.93c-0.3334-0.53067-1.5732-0.9715-2.755-0.97961-1.1818-0.008118-2.8108-0.43933-3.62-0.95828-1.0129-0.64966 0.056335-0.77591 3.4327-0.4054 7.2966 0.80078 9.3173 1.313 9.3173 2.3617 0 1.2441-5.592 1.2279-6.375-0.018372zm78.563-8.2903c-0.367-0.94089 0.037994-2.3726 0.95227-3.3665 2.7927-3.0357-0.047028-5.115-3.0078-2.2024-1.1973 1.1778-1.8868 1.3002-2.7181 0.48242-1.5947-1.5688-5.1694-1.3516-6.6506 0.40414-1.5479 1.8348-4.1999 3.2729-8.0263 4.3524-2.3998 0.67706-3.2983 0.41812-5.2661-1.5178-2.0607-2.0272-9.5502-5.2994-12.129-5.2994-0.48306 0-1.0194 0.96603-1.1917 2.1468-0.36691 2.5132-4.0494 4.6007-6.8465 3.8812-1.0747-0.27649-2.3607-1.5549-2.8577-2.8409-0.49701-1.286-1.3157-2.0878-1.8192-1.7816-0.50351 0.30612-1.5542-0.34052-2.3349-1.437-1.1151-1.5662-2.0231-1.8508-4.2354-1.3276-1.5488 0.36618-2.5122 0.34213-2.1409-0.053558 0.37128-0.39566-0.46552-1.7593-1.8596-3.0302-1.394-1.271-2.0288-2.3108-1.4106-2.3108s1.124-0.65124 1.124-1.4473c0-0.79599-0.66202-1.4473-1.4712-1.4473-0.80914 0-1.4712-0.65124-1.4712-1.4472 0-0.79599 0.55167-1.4539 1.226-1.462 0.85129-0.010254 0.79562-0.28265-0.18213-0.8913-1.1555-0.7193-1.182-1.1445-0.14777-2.3704 1.0395-1.2322 0.97958-1.77-0.34213-3.0702-1.3223-1.3008-1.3821-1.84-0.34259-3.0841 1.11-1.3285 0.88074-1.4339-1.9277-0.88672-2.6112 0.50873-3.1848 0.32007-3.1725-1.0434 0.037872-4.1976 4.4006-5.8838 15.677-6.0592 3.5063-0.054535 5.713-0.36566 4.9039-0.69134-0.97086-0.39078-0.13699-0.99591 2.4519-1.7794 2.2203-0.67191 3.0504-1.2194 1.9125-1.2614-1.9168-0.070679-4.3644-1.7355-4.3644-2.9686 0-0.67059 8.0572-0.27078 12.002 0.59558 1.9398 0.426 2.8507 0.16455 3.2824-0.94211 1.0506-2.6933 12.791-7.4784 17.912-7.3004 2.5095 0.087189 5.2952-0.14175 6.1904-0.50882 1.1251-0.46127 1.8166-0.082062 2.2393 1.2279 0.68048 2.1091 4.1321 3.4214 5.0705 1.9277 0.33157-0.52777 1.1196 0.055695 1.7512 1.2966 0.63162 1.2409 2.0158 2.3013 3.076 2.3563 1.0602 0.055054 3.2517 0.63586 4.87 1.2907 4.5936 1.8589 8.6366 2.2617 12.41 1.2367 2.2798-0.61923 4.0668-0.61243 5.2154 0.019897 1.9487 1.0728 8.7833-0.51077 11.307-2.6199 0.80911-0.67618 3.5374-1.4451 6.0627-1.7086 4.2847-0.44711 4.7959-0.25211 7.6487 2.9179 2.0419 2.2688 2.7308 3.718 2.0745 4.3636-0.5777 0.56836-0.63721 1.6015-0.14441 2.5073 0.461 0.84735 0.992 1.9748 1.1801 2.5055 0.18799 0.53064 1.4452 0.96478 2.7938 0.96478 2.2436 0 2.549 0.48904 2.1087 3.377-0.080933 0.53067-0.85638 0.96484-1.7232 0.96484-1.0694 0-1.374 0.51807-0.94757 1.6113 1.7462 4.4767 2.5283 10.246 1.5467 11.41-0.74585 0.88403-0.65497 1.3697 0.32544 1.7398 0.74805 0.28238 1.5967 1.4038 1.8861 2.4921 0.49939 1.8787 0.185 1.9596-6.2265 1.6012-3.7685-0.21066-7.0132 0.037659-7.3426 0.56198-0.37329 0.59418-1.0667 0.55042-1.8867-0.11911-0.89673-0.73215-1.4925-0.74658-1.9321-0.046844-0.34955 0.55643-2.5792 1.0117-4.9549 1.0117-2.3756 0-6.5772 0.87549-9.3368 1.9456-4.3434 1.6842-5.5428 1.7908-8.9264 0.79352-3.0542-0.90018-4.6386-0.89255-7.2461 0.035034-2.5469 0.90601-3.8389 0.923-5.4558 0.071716-1.6647-0.87646-2.2997-0.83572-2.9643 0.19025-0.46515 0.71814-0.63449 1.8716-0.37628 2.5633 0.25815 0.69171-0.35245 2.1254-1.3569 3.1861-1.6668 1.76-1.8821 1.7854-2.4649 0.29129zm-292.48-0.1668c-0.60182-0.38986-2.0203-2.5062-3.1522-4.7029-1.374-2.6665-3.0477-4.3335-5.0356-5.0152-3.327-1.141-3.7961-3.073-1.3343-5.4948 1.342-1.3201 1.4263-1.9585 0.45978-3.481-0.94728-1.4922-0.89618-2.2679 0.25603-3.8863 1.2697-1.7833 1.262-2.2884-0.065262-4.2812-1.3641-2.048-1.3511-2.4106 0.13835-3.8758 0.90376-0.88907 1.4297-2.4196 1.1687-3.4014-0.26096-0.98169-0.045868-2.0454 0.47795-2.3639 0.52383-0.31851 0.8268-1.7574 0.67323-3.1974-0.17065-1.6005 0.5945-3.711 1.9682-5.429 1.2894-1.6126 1.7993-2.9576 1.1962-3.1553-0.57812-0.18961-1.0512-1.1769-1.0512-2.194 0-1.3822-0.69366-1.8493-2.7462-1.8493-1.5104 0-3.1731 0.41995-3.6948 0.93326-1.0955 1.0777-5.3283 0.23233-5.3283-1.0642 0-0.47888-1.1034-0.59827-2.4519-0.26526-2.1022 0.51904-2.4519 0.27704-2.4519-1.6967 0-1.2661-0.70033-3.2856-1.5563-4.4878-1.2269-1.7232-1.3072-2.481-0.37926-3.581 0.64737-0.76736 1.5285-1.1815 1.9582-0.92026 1.2711 0.77283 3.9005-0.59448 3.9005-2.0283 0-1.8462 4.5957-2.8152 6.3928-1.3479 0.91945 0.75067 3.2493 1.0261 6.2674 0.74075 2.6421-0.24972 5.619 0.015442 6.6151 0.58926 0.9962 0.57385 6.0041 1.1442 11.129 1.2674 11.444 0.27512 15.775 0.79575 16.561 1.9905 1.3889 2.1128 6.9104 3.9176 11.919 3.8959 8.2334-0.035614 8.7896 0.074219 8.7896 1.7356 0 0.93375 0.54701 1.344 1.3753 1.0313 0.75641-0.28552 1.6374-0.26135 1.9577 0.053802 1.0414 1.0245 6.4748 1.235 6.4748 0.25079 0-0.52618 0.44134-0.9567 0.98077-0.9567s0.98077 1.2254 0.98077 2.7231c0 3.1703-4.637 6.6506-11.576 8.6884-2.3211 0.68167-4.4954 1.9749-4.8317 2.8738-0.33635 0.89896-2.3829 4.1267-4.5479 7.1728l-3.9363 5.5383 1.6142 3.3299c1.5987 3.2981 1.5865 3.3592-1.2849 6.383-1.5945 1.6791-2.8991 3.8755-2.8991 4.8806 0 1.1614-0.68903 1.8277-1.8902 1.8277-1.0396 0-3.219 1.5859-4.8431 3.5242-2.6708 3.1875-3.4038 3.5189-7.6724 3.4689-2.5957-0.030457-7.2981 0.4053-10.45 0.96835-4.503 0.80447-5.9546 1.5081-6.7777 3.285-1.1208 2.42-1.5834 2.6336-3.2978 1.5229zm196.72-5.2843c-0.91406-1.9282-1.5804-2.3795-2.4569-1.6638-1.482 1.2099-2.7398-1.2539-1.3421-2.6289 0.569-0.55975-0.009979-1.7591-1.5252-3.1594l-2.4424-2.2572 2.089-1.7823c1.149-0.98032 2.5732-1.7808 3.165-1.7788 1.5939 0.005371 7.8186 3.8811 8.7372 5.4401 0.43774 0.74292 1.2101 1.0989 1.7164 0.79111 0.50626-0.3078 0.9205-0.099823 0.9205 0.46216 0 1.2954-1.5538 1.3043-3.9876 0.02298-2.2654-1.1927-2.3481-0.72827-0.49753 2.7922 1.47 2.7964 0.59442 6.3889-0.95575 3.9214-0.58655-0.93362-0.95523-0.77841-1.4742 0.62064-0.6304 1.6994-0.8038 1.6298-1.9463-0.78012zm-54.136-1.696c-0.67377-1.0613-2.1119-1.9371-3.1958-1.9461-2.7924-0.023315-11.066-5.0597-10.583-6.442 0.2214-0.63354 0.99149-0.92956 1.7112-0.65787 0.71973 0.2717 1.5897 0.0466 1.9332-0.50024 0.42487-0.67627 1.3224-0.68146 2.8067-0.016144 1.4069 0.63055 4.182 0.66952 7.8112 0.10968 3.096-0.47763 5.6135-0.60849 5.5944-0.29083-0.019104 0.31766-0.64148 1.6558-1.3831 2.9738-0.88605 1.5747-1.0435 2.9566-0.45914 4.0307 2.0751 3.8143-1.9147 6.3946-4.2353 2.739zm-160.7-1.64c-2.3776-0.36282-2.5122-0.67602-2.2367-5.2065 0.16121-2.6512 0.50465-5.1571 0.76321-5.5687 0.6649-1.0584-2.7156-3.7134-4.1352-3.2479-1.5917 0.52197-1.496-2.7498 0.14943-5.1074 2.342-3.3557 4.5775-15.351 3.5303-18.943-1.2492-4.2848-1.2321-4.3672 1.0261-4.9482 1.1254-0.28952 1.9634-0.029022 1.9659 0.61108 0.002426 0.61365 1.5471 1.1934 3.4327 1.2884 1.8856 0.09494 3.4283-0.23071 3.4283-0.72363 0-0.49295 1.0555-0.89624 2.3456-0.89624 3.2023 0 4.3611 4.261 1.8894 6.9479-1.0232 1.1122-1.625 3.0211-1.4551 4.615 0.15941 1.4951-0.13875 2.9788-0.66257 3.2973-0.52383 0.31848-0.71489 1.4726-0.42456 2.5648 0.38919 1.4641-0.028122 2.1288-1.5887 2.5302l-2.1166 0.5445 1.8992 3.1665c1.7129 2.8559 1.7551 3.3689 0.43072 5.229-1.1245 1.5794-1.2034 2.3766-0.33691 3.4037 0.87013 1.0314 0.7516 1.9116-0.51311 3.8104-0.90454 1.3581-1.3919 3.1172-1.0829 3.9092 0.46404 1.1896-2.3125 3.7945-3.4691 3.2546-0.17032-0.079529-1.4481-0.31833-2.8395-0.53064zm226.13-6.097c-0.33972-0.54077-2.6828-2.0106-5.2069-3.2664-3.3959-1.6896-5.9016-2.2175-9.6361-2.0305-4.4499 0.2229-5.1691-0.01123-6.0807-1.9794-0.89493-1.9322-0.74393-2.2875 1.1237-2.644 1.9796-0.37784 1.993-0.42264 0.16229-0.54321-3.4169-0.22501-6.659-8.8149-3.3271-8.8149 0.49988 0 0.90888-0.59808 0.90888-1.3291 0-0.73099 0.65717-1.8656 1.4604-2.5214 0.80316-0.65576 1.2185-1.5773 0.92285-2.0478-0.45944-0.73132 1.5306-1.2765 3.6525-1.0006 0.35281 0.045868 1.1792-0.55399 1.8365-1.333 0.65723-0.77902 2.4649-1.4164 4.0172-1.4164 1.5522 0 2.8222-0.4342 2.8222-0.96484 0-0.53067 1.0746-0.96484 2.3881-0.96484 1.3134 0 3.5956-0.45166 5.0714-1.0036 1.9876-0.74341 3.5936-0.66031 6.1937 0.32044 1.9307 0.72824 4.9178 1.232 6.6381 1.1195 1.997-0.13062 3.3278 0.30823 3.6811 1.2139 0.92917 2.3821-0.3053 3.0796-3.6346 2.0536-3.4687-1.0689-3.966-1.0942-7.5878-0.38608-1.3486 0.26367-3.3346 0.64441-4.4135 0.84613-1.0789 0.20169-2.021 0.97552-2.0936 1.7196-0.072632 0.74405-0.18329 1.787-0.24591 2.3177-0.062592 0.53067-1.1925 1.026-2.5109 1.1006-1.7418 0.098694-2.4946-0.42871-2.7539-1.9297-0.3327-1.9258-0.44739-1.8842-1.6949 0.61398-1.0235 2.0496-1.0676 2.9455-0.18771 3.8111 0.63269 0.62241 1.1503 1.9132 1.1503 2.8684 0 0.95514 0.66202 1.7367 1.4712 1.7367 0.80914 0 1.4712 0.45981 1.4712 1.0218 0 0.56198-0.44134 0.75348-0.98077 0.42551-1.7152-1.0429-3.1646 0.5036-1.8891 2.0156 0.91834 1.0886 0.78052 1.3694-0.68799 1.4018-1.3666 0.03009-1.068 0.46207 1.1671 1.6884 5.0638 2.7785 6.9834 4.4499 7.7104 6.7134 0.71735 2.2336 0.17798 2.9317-0.91769 1.1877zm-56.647-1.5281c-0.72351-0.71173 1.0164-5.4369 2.2864-6.209 0.53281-0.32398 0.070343-3.0292-1.1013-6.4423-1.5463-4.5044-2.5554-6.016-4.3041-6.4478-1.3624-0.3364-2.5336-1.5409-2.9019-2.9845-0.39624-1.5531-1.3057-2.4205-2.5378-2.4205-1.0561 0-2.6123-1.0391-3.4582-2.309-1.0688-1.6046-2.831-2.4998-5.7766-2.9343-3.6559-0.53931-5.2679-1.6658-11.725-8.1934-4.1176-4.1624-7.489-8.1606-7.4919-8.8849-0.003021-0.72424-0.44028-2.8565-0.97171-4.7384-0.77164-2.7324-1.8846-3.8604-5.526-5.6009l-4.5598-2.1793-3.7284 2.9475c-4.0886 3.2323-4.9486 3.5593-4.579 1.7415 0.13483-0.66336-0.5853-1.2085-1.6003-1.2114-1.015-0.002899-2.5033-0.97983-3.3072-2.1708-1.0722-1.5886-1.1384-2.1656-0.24838-2.1656 0.88406 0 0.8089-0.60696-0.27713-2.2375-1.3671-2.0526-1.334-2.3336 0.40012-3.3989 1.49-0.91538 1.6779-1.5521 0.88712-3.0056-1.477-2.7149-1.3594-2.8571 2.9198-3.5302 3.541-0.55704 4.3938-1.2972 4.0392-3.5062-0.24972-1.556 1.7992-0.60339 3.6318 1.6884 2.2736 2.8434 3.106 3.0347 3.1487 0.72363 0.042206-2.2857 2.5825-5.553 3.1091-3.9988 0.60269 1.7788 4.7059 2.1054 4.7059 0.37463 0-0.79266 0.44134-1.4412 0.98077-1.4412 0.5394 0 0.98077-0.69772 0.98077-1.5505 0-1.052 0.52661-1.3516 1.6379-0.93213 0.90091 0.34006 1.952 0.11847 2.3358-0.49243 1.1733-1.8676 7.1494-2.0809 8.4765-0.30243 0.6442 0.86322 2.5841 1.8538 4.3108 2.2012 2.7195 0.54715 3.187 1.0869 3.4944 4.0346 0.32184 3.0859 0.057312 3.5113-2.8397 4.5663-5.367 1.9545-5.8342 2.4773-4.7412 5.3054 0.66095 1.7101 0.6546 2.7377-0.019409 3.1475-0.5932 0.36066-0.71182 1.848-0.29129 3.6523 0.3902 1.6741 0.66415 3.8037 0.60876 4.7324-0.055359 0.92865 0.31326 1.6884 0.81915 1.6884 0.50592 0 0.91983-0.43817 0.91983-0.97369 0-0.53555 1.5538 0.007172 3.4529 1.206 2.6645 1.6821 3.7977 3.3283 4.9631 7.2103 2.0497 6.8273 7.5042 11.297 12.632 10.35 3.4818-0.64255 4.4068 0.19772 2.3957 2.1762-0.78055 0.76785 0.63263 2.0128 5.1491 4.5362 9.0247 5.0422 13.398 8.8394 11.896 10.33-0.94293 0.93665-1.3286 0.8403-1.8352-0.45844-0.35278-0.90436-1.9838-2.3272-3.6246-3.1618-2.8576-1.4538-3.0601-1.4218-4.8129 0.75931-3.8081 4.7387-3.9417 5.4764-1.3002 7.1791 2.9614 1.9089 3.2236 4.8628 0.50699 5.711-1.0789 0.33688-1.9616 1.2498-1.9616 2.0286 0 1.648-2.8385 6.1725-3.8724 6.1725-0.38748 0-0.97055-0.26172-1.2958-0.5816zm-50.29-9.4616c-1.6374-1.1779-1.7607-1.7857-0.84598-4.1698 0.79028-2.0597 0.76208-3.8198-0.10776-6.7177-1.169-3.8948-1.1531-3.9387 1.9423-5.3908 2.9509-1.3843 3.1923-1.3516 4.432 0.60132 0.72113 1.136 1.4606 3.3284 1.6433 4.8722 0.41812 3.5326-1.4241 10.471-2.5917 9.7613-0.48111-0.29251-1.2528 0.13287-1.715 0.94531-0.73337 1.2892-1.0842 1.3017-2.7571 0.098267zm79.999-6.5663c-0.011993-0.91-0.94232-2.1391-2.0674-2.7315-1.125-0.59232-1.8026-1.316-1.5056-1.608 0.29691-0.29214 0.12958-1.2853-0.37189-2.2071-0.50146-0.92178-0.63397-1.9492-0.29452-2.2831 1.0085-0.9921 1.0753-9.6341 0.089172-11.527-1.1651-2.2369 0.70703-4.6334 2.9742-3.8073 3.2589 1.1875 4.9584 4.0837 4.3962 7.4916-0.38721 2.3474 0.063904 4.2058 1.6236 6.6884 1.1879 1.8908 1.7122 3.4379 1.1652 3.4379-0.54706 0-1.2524 0.75983-1.5674 1.6885-0.315 0.92865-1.4383 2.7739-2.4962 4.1005-1.5262 1.9139-1.9281 2.0704-1.9453 0.7576zm46.668-7.4108c-1.9066-0.72485-3.0932-5.4482-1.5973-6.3578 0.45108-0.27426 0.59149-1.3588 0.31201-2.4102-0.64017-2.4082 4.048-4.5751 6.1629-2.8484 0.71991 0.5878 1.7677 0.78973 2.3285 0.44879 0.56076-0.34094 1.49 0.3959 2.0651 1.6374 0.57501 1.2416 2.4526 2.8942 4.1725 3.6726l3.1269 1.4152-5.243 0.2948c-4.0221 0.22617-5.735 0.82571-7.3558 2.5746-1.4961 1.6144-2.6554 2.0735-3.9718 1.573zm-41.24-3.5617c-0.83914-0.8255-1.5257-2.5504-1.5257-3.833 0-2.5514 2.8098-6.408 4.098-5.6248 0.44321 0.26947 0.80582 0.081299 0.80582-0.41809 0-1.6359 7.557-1.1245 9.0838 0.61472 3.2846 3.7414 2.202 7.8981-2.057 7.8981-1.0356 0-2.3505 0.55429-2.922 1.2318-1.514 1.7947-5.7172 1.8684-7.483 0.13129zm27.864-4.0777c-2.5083-1.1951-3.6049-1.2275-6.7694-0.20007-4.0478 1.3142-6.1787 0.77243-5.3471-1.3594 0.28272-0.72482-0.37946-2.1368-1.4715-3.1376-1.8077-1.6568-2.0091-3.0418-1.2016-8.2669 0.061493-0.39801 0.77383-0.72363 1.583-0.72363 0.80914 0 1.4712-0.65128 1.4712-1.4472 0-0.79602-0.43002-1.4473-0.9556-1.4473-0.5256 0-1.6472-1.3156-2.4924-2.9236-1.3287-2.5277-1.348-3.1094-0.14194-4.2958 1.5563-1.531 2.7352-0.98029 1.9902 0.92975-0.54944 1.4085 3.5942 2.3006 12.879 2.7728 4.4766 0.22766 6.5102-0.12567 8.4992-1.4767 4.3126-2.9294 8.1451-3.2171 12.12-0.90964 1.9367 1.1241 4.1581 2.0439 4.9364 2.0439 2.0902 0 1.7189 1.6265-0.5018 2.1978-1.0741 0.27631-2.2248 1.7002-2.6174 3.2386-0.38525 1.5101-1.288 3.3236-2.0062 4.0301-1.4614 1.4376-1.7911 3.4854-0.42773 2.6564 1.2696-0.77194 2.3111 2.4928 1.1573 3.6278-0.6413 0.63089-1.4448 0.56903-2.3648-0.18204-1.89-1.5431-6.5588 0.22879-7.2271 2.7428-0.8623 3.2439-6.5041 4.3253-11.112 2.1299zm-111.55-1.3859c-0.057159-0.66333-0.37357-2.5902-0.70316-4.2819-0.48999-2.515-0.2099-3.2808 1.5364-4.2001 2.1821-1.1489 3.7955-0.075775 3.8326 2.549 0.05838 4.129-4.3395 9.7212-4.6658 5.933zm82.162-4.6519c0-1.451-2.1682-3.4187-4.6059-4.1798-1.5155-0.47318-2.5753-0.002563-3.9962 1.7745-1.8121 2.2662-2.027 2.3139-3.4153 0.75787-1.9953-2.2365-3.1118-6.0024-1.7796-6.0024 0.57578 0 1.0469-0.67691 1.0469-1.5042 0-0.82727 0.44449-1.234 0.9877-0.90366 0.54321 0.33029 1.2525-0.078278 1.5761-0.9079 0.32361-0.82962 1.2032-1.5084 1.9546-1.5084 1.6426 0 1.8041-1.5495 0.25952-2.4887-0.75159-0.45694-0.57593-0.96506 0.54742-1.5836 1.5107-0.83164 1.474-1.0644-0.42255-2.6825-1.7713-1.5113-1.8966-2.0557-0.85165-3.7017 0.98636-1.5537 0.97427-2.227-0.061981-3.4554-0.85983-1.0192-0.92163-1.5256-0.18616-1.5256 0.60547 0 1.1009-0.43417 1.1009-0.96484 0-1.779-2.1391-0.98782-2.6635 0.9852-0.4025 1.5141-0.81497 1.7078-1.8452 0.86667-1.2221-0.9978-5.5958-1.5393-17.068-2.1134-3.8654-0.19342-4.4511 0.039154-4.7166 1.8728-0.18463 1.2753 1.4496 4.5606 4.1807 8.4044l4.4839 6.3107-3.1816-0.2033c-3.3114-0.21161-9.3288-5.443-7.5234-6.5406 0.50534-0.30725 0.025696-1.3538-1.0659-2.3256-1.0916-0.97183-1.9847-2.5511-1.9847-3.5095s-0.85962-2.5304-1.9102-3.4933c-1.2158-1.1143-1.6169-2.2177-1.1034-3.0351 0.56451-0.89853 1.0084-0.96356 1.4778-0.21649 1.1062 1.7607 4.3013 1.2065 4.9686-0.86182 0.34241-1.0613 1.0857-1.9297 1.6516-1.9297 0.56598 0 0.79672-0.87402 0.51276-1.9423-0.55881-2.1021 1.6024-3.7776 4.3143-3.3448 0.86618 0.13821 3.3008 1.3749 5.4103 2.7482 4.4452 2.8939 10.178 4.3598 10.178 2.6025 0-0.62833 0.45303-0.86691 1.0068-0.53027 0.55371 0.33667 0.94281 1.1221 0.86456 1.7454-0.2905 2.3151 0.12085 3.5454 1.1854 3.5454 0.6023 0 0.8768-0.75977 0.60992-1.6884-0.26685-0.92865-0.64935-2.282-0.84998-3.0076-0.20062-0.72546 0.29727-1.4775 1.1064-1.6711 6.3356-1.5162 6.7196-1.4949 8.731 0.48373 1.1316 1.1132 2.0575 2.6615 2.0575 3.4406 0 0.77905 0.99301 1.973 2.2068 2.6533 1.2137 0.68027 2.2067 2.0579 2.2067 3.0614s0.88269 2.306 1.9616 2.8945 2.3261 1.5042 2.7718 2.0348c0.5249 0.62509 0.98541 0.54013 1.3077-0.24121 0.27362-0.6633 0.8081-1.206 1.1878-1.206 1.1002 0 1.1151 4.1354 0.01947 5.4341-1.0501 1.2447 1.0423 6.3707 3.1149 7.6308 0.66452 0.40405 0.2699 1.1886-1.0582 2.1038-1.3376 0.92163-1.9401 2.1284-1.6352 3.2752 0.59543 2.24-0.4071 2.8995-4.4953 2.9573-1.7459 0.024658-4.152 0.64673-5.3467 1.3824-2.6118 1.6081-3.222 1.6656-3.222 0.30371zm-131.2-3.2827c-1.1611-1.8993-6.2363-3.1012-11.911-2.8207-5.4706 0.27039-11.453-1.7624-10.35-3.5172 0.31918-0.50806-0.072235-0.92374-0.86981-0.92374-1.2582 0-1.2742-0.47897-0.121-3.6181 0.73106-1.99 1.7182-6.8745 2.1938-10.854 0.7721-6.462 0.4987-8.7383 0.89125-10.669 0.47206-2.322 0.14674-2.963-1.9901-3.9208-2.8519-1.2783-5.9013-5.2558-5.0582-6.5978 0.30115-0.47937-0.39038-1.5178-1.5367-2.3077-1.1464-0.78989-1.7897-1.905-1.4297-2.4781 0.38928-0.6196-0.17975-1.0419-1.4039-1.0419-1.1322 0-3.8215-0.8848-5.9762-1.9662s-4.3615-1.6963-4.9041-1.3664c-0.61607 0.37454-0.75658-0.30124-0.37425-1.7998 0.44504-1.7443 0.12324-2.6688-1.1785-3.3854-2.3574-1.2978-1.1606-2.3448 2.8277-2.4739 1.7663-0.057129 3.7576-0.75516 4.4251-1.5512 1.0569-1.2603 1.4513-1.1489 3.0529 0.8624 1.0963 1.3767 2.3161 2.0198 3.0196 1.592 0.64922-0.39474 2.6192-0.71768 4.3777-0.71768h3.1973l-0.6787-4.0041c-0.37329-2.2022-1.0256-4.8144-1.4495-5.8048-0.68405-1.598-0.5333-1.6757 1.3395-0.6897 1.1606 0.61108 2.1103 1.4745 2.1103 1.9186 0 1.0425 7.233 2.1899 9.1775 1.4559 0.81795-0.30881 1.2459-1.18 0.95091-1.9362-0.36389-0.93289 0.88654-1.9939 3.8905-3.3011 4.3792-1.9056 6.5773-5.1428 6.5773-9.6866 0-0.99954 1.1655-2.091 2.8497-2.6686 2.478-0.84982 2.9168-0.72494 3.3639 0.95694 0.3849 1.448 1.0246 1.7749 2.5445 1.3003 1.3664-0.42664 2.0304-0.20953 2.0304 0.66391 0 1.7192 3.2146 4.3711 4.7058 3.8821 0.64836-0.21262 1.234 0.083832 1.3014 0.65869 0.067444 0.57489 0.18842 1.588 0.26886 2.2513 0.080444 0.66333 0.95755 1.1376 1.9491 1.054 0.99156-0.083649 3.0773 0.96497 4.6349 2.3303s3.9408 2.5987 5.2958 2.7408c1.3551 0.14212 4.8586 1.3729 7.7855 2.7351s5.7904 2.4767 6.3632 2.4767c1.359 0 1.3211 1.5425-0.10199 4.1585-0.62894 1.1561-1.6508 4.0582-2.2708 6.4492-0.66678 2.5712-1.7022 4.3652-2.5344 4.3911-0.7739 0.024109-1.3142 0.51517-1.2008 1.0912 0.11346 0.57602-0.65888 1.8176-1.7163 2.759-1.0574 0.94144-1.9226 2.2492-1.9226 2.9062 0 0.65698-0.69 1.455-1.5333 1.7733-0.84332 0.31836-1.2467 1.0351-0.89633 1.5928 0.35034 0.55765 0.047302 1.7472-0.67343 2.6434-1.1168 1.3888-0.88771 1.3637 1.5502-0.16989 2.7688-1.7417 2.9027-1.7428 4.172-0.035217 0.83063 1.1175 0.9689 2.1011 0.37714 2.6833-0.59174 0.58209-0.41119 1.9139 0.49246 3.633 1.3219 2.5147 1.2776 2.7925-0.60394 3.7831-1.6153 0.85043-1.7946 1.3488-0.8768 2.4368 0.63458 0.7522 0.90842 1.9968 0.60849 2.7656-0.78665 2.0167 2.9845 6.3918 4.8895 5.6727 1.3108-0.49484 1.3754-0.26544 0.4198 1.4912-0.62116 1.1418-1.54 2.076-2.0418 2.076-0.50183 0-2.3052 1.3394-4.0076 2.9764-1.8224 1.7525-3.752 2.7784-4.6925 2.4948-0.87856-0.26483-3.0317-0.95297-4.7849-1.5291-8.3591-2.7473-8.6251-2.7596-12.59-0.58228-2.5226 1.3855-3.951 2.9074-4.1667 4.4395-0.18054 1.2823-0.67671 2.6893-1.1026 3.1267-1.2743 1.3087-5.922 1.4442-6.6857 0.19492zm112.31-3.0739c-2.0164-1.4114-3.6662-3.3187-3.6662-4.2385s-0.56583-1.886-1.2574-2.147c-1.9257-0.72699-9.5312-12.086-9.5312-14.235 0-2.3482 0.85422-2.4187 2.5578-0.21091 1.1453 1.4842 1.3067 1.5002 1.3341 0.13266 0.022858-1.1394 0.75302-1.4561 2.7283-1.1834 1.4834 0.20477 4.8538 0.57523 7.4896 0.82324 2.6358 0.24802 5.3887 0.93768 6.1173 1.5326 0.72873 0.59491 1.9926 0.82965 2.8086 0.52158 0.9093-0.34323 1.4836-0.011505 1.4836 0.8569 0 0.77933-0.44132 1.417-0.98074 1.417-0.53943 0-0.98077 0.86838-0.98077 1.9297s0.42749 1.9297 0.94998 1.9297 0.69379 0.6568 0.38068 1.4595c-0.31314 0.80273-0.024597 2.1053 0.64124 2.8945 1.0059 1.1923 0.86371 1.435-0.84027 1.435-1.5099 0-1.8856 0.42352-1.4246 1.6055 0.39136 1.0033 0.23612 1.3684-0.41388 0.97311-1.4002-0.85129-4.3255 3.6881-3.5907 5.5719 0.78354 2.0087 0.46136 1.9182-3.8056-1.0684zm41.235-9.1625c-0.69132-0.43155-2.2761-0.79126-3.5216-0.79938-1.2984-0.008484-1.9988-0.43796-1.6415-1.0066 0.34268-0.54547-0.40362-1.8336-1.6585-2.8624-1.3035-1.0688-1.7312-1.8844-0.99771-1.9027 0.70612-0.017639 1.0294-0.43701 0.71854-0.93188-0.31091-0.49493-1.8664-0.86346-3.4566-0.81897-3.367 0.094147-6.2172-1.8693-5.4752-3.7718 0.30402-0.77936-0.48285-1.7696-1.9169-2.4124-1.3379-0.5997-2.4326-1.8674-2.4326-2.8172 0-0.94977-0.77237-2.2078-1.7164-2.7956-0.94397-0.58786-1.275-1.2675-0.73556-1.5102 4.4215-1.9903 5.8363-3.1461 6.4086-5.2356 0.70227-2.5638 6.8318-12.538 6.8318-11.116 0 0.46176 1.0155-0.09903 2.2567-1.2461 1.8195-1.6815 2.8171-1.9283 5.149-1.2739 1.5908 0.44641 3.9723 0.64764 5.2923 0.4472 1.3679-0.20776 2.7289 0.21399 3.1651 0.98074 0.65073 1.1439 1.4656 1.1254 5.4463-0.1235 2.5746-0.80777 5.3778-2.054 6.2294-2.7695 2.5962-2.1811 3.4371-1.5623 7.7395 5.6943 3.4498 5.8185 4.2016 8.0071 4.4702 13.013 0.17758 3.3097 0.60486 6.8917 0.94952 7.9599 0.69159 2.1436 4.2929 2.6436 6.117 0.84921 1.215-1.1952 4.1852-0.48999 4.1852 0.99377 0 1.5691-3.302 4.3442-3.7158 3.1229-0.20389-0.60172-0.70541-1.0941-1.1145-1.0941-0.9043 0-3.0158 6.6647-3.0158 9.5191 0 1.4157-0.61282 2.059-1.9616 2.059-1.0789 0-1.9616-0.40051-1.9616-0.89004 0-1.4148-6.7219-3.2139-9.4716-2.535-1.3761 0.33975-3.6395 1.351-5.0299 2.2472-2.6933 1.736-12.892 2.4282-15.136 1.0272zm69.287-6.2648c-0.57892-0.21201-0.8699-1.6098-0.64664-3.1063 0.33353-2.2354-0.16873-3.0787-2.8152-4.7271l-3.2212-2.0063 3.6565-1.7153c4.9972-2.3443 4.4094-4.5475-1.3226-4.9577-2.4233-0.17343-5.0556-0.53607-5.8497-0.80585-1.268-0.43085-1.2686-0.59702-0.004791-1.3654 1.2213-0.74252 1.1547-1.0792-0.4404-2.2267-1.0337-0.74353-2.5762-1.221-3.4279-1.061-5.8866 1.1055-6.9429 1.5541-6.9429 2.9486 0 2.9911-8.6862 9.6083-13.94 10.62-1.9636 0.37799-1.5915-0.84308 2.1708-7.1237 2.3296-3.8889 3.9231-5.1881 3.9231-3.1986 0 0.50021 0.94241 0.7309 2.0943 0.51266 2.4375-0.46176 3.712-1.4221 1.8874-1.4221-0.68704 0-1.0075-0.61954-0.71216-1.3767 0.29538-0.75717-0.098755-1.8958-0.87582-2.5302-0.77707-0.63446-1.4129-2.1858-1.4129-3.4475 0-1.4645-0.57034-2.294-1.5775-2.294-1.1571 0-1.4264-0.59238-1.0104-2.2226 0.37219-1.459-0.017456-2.7021-1.1342-3.6181-5.2376-4.2964-16.243-5.7536-18.917-2.5047-2.2356 2.7159-11.408 5.6313-12.104 3.847-0.28873-0.74014-1.685-1.2135-3.2337-1.0962-4.4695 0.33841-10.779-1.1816-12.451-2.9998-2.0677-2.2477-0.34753-8.0326 2.1125-7.1039 1.2559 0.47409 1.4174 0.13928 0.84283-1.7471-0.39096-1.2835-0.79288-2.7994-0.89322-3.3685-0.22403-1.2712 6.7884-9.0959 8.1516-9.0959 0.54083 0 1.0506-0.54272 1.1327-1.206 0.082153-0.66333 0.21753-1.8573 0.30081-2.6533 0.083282-0.79596-0.56442-2.5327-1.4393-3.8593-1.5866-2.4058-1.5807-5.789 0.010193-5.789 0.46133 0 1.5389-0.68875 2.3946-1.5305 2.5562-2.5146 18.526-1.8577 20.301 0.83514 0.34659 0.52579 2.627 1.0059 5.0674 1.0669 2.4405 0.060974 4.7644 0.43274 5.1643 0.82614 0.39984 0.39337 1.291 0.2547 1.9805-0.30817 0.8865-0.72378 1.857-0.70566 3.3148 0.061829 1.1337 0.59686 2.875 0.83115 3.8696 0.52063 1.1251-0.35132 2.0259-0.006958 2.3841 0.91138 1.0285 2.6368 2.5989 1.5595 2.5989-1.7828 0-4.1952 1.9228-5.6858 7.5767-5.8736 2.5077-0.083282 4.7188-0.62155 4.9134-1.1961 0.1947-0.57458 1.1657-0.83588 2.1578-0.58063 0.99206 0.25522 2.0638 0.050262 2.3815-0.45548 1.1152-1.7751 5.5898-5.49e-4 7.0624 2.8006 0.80228 1.5262 1.0825 2.775 0.62259 2.775-0.45987 0-0.64175 1.3025-0.40424 2.8945 0.40701 2.7284 1.4813 3.3912 4.8237 2.9765 1.3728-0.17035 4.7637 4.5215 3.8894 5.3816-0.32379 0.31854-0.13605 1.4113 0.41727 2.4283 0.68402 1.2573 1.6157 1.6588 2.9108 1.2544 1.1286-0.35239 2.5332 0.023438 3.4469 0.92227 1.3778 1.3553 1.7664 1.3624 3.648 0.065948 3.0002-2.0673 3.9607-1.831 5.9371 1.4605 0.96155 1.6014 2.152 2.6661 2.6454 2.3661 1.1271-0.68524 10.008 2.3717 12.706 4.3735 1.9424 1.4414 1.9528 1.5707 0.27216 3.4011-1.7571 1.9138-2.2685 4.9353-1.1385 6.7269 0.62091 0.98434 0.42169 3.4959-0.45566 5.7451-0.30466 0.78094-1.4715 1.0678-3.0989 0.76175-2.0418-0.38397-3.2362 0.18323-5.4838 2.6041-1.5804 1.7022-2.6553 3.4422-2.3887 3.8666 0.26663 0.42441-1.5046 1.3196-3.9361 1.9894-2.4316 0.66971-4.6563 1.5923-4.944 2.0501-0.28763 0.45789-1.1732 0.83249-1.9678 0.83249-0.79459 0-3.0856 0.72055-5.0912 1.6013-2.0055 0.88071-3.942 1.6405-4.3034 1.6885-1.5896 0.211-5.718 4.5652-5.718 6.0306 0 0.88797 0.26978 1.3491 0.59949 1.0247 0.32968-0.32434 1.7044 0.70215 3.055 2.2811 1.8192 2.1268 2.9982 2.7182 4.5496 2.282 1.1517-0.32385 2.8664-0.80072 3.8104-1.0597 1.0696-0.29346 1.7163 0.060059 1.7163 0.93817 0 1.8282-2.4759 2.7323-5.463 1.9947-1.6572-0.40918-2.5458-0.12021-2.9693 0.9657-0.33246 0.8523-1.2775 1.5496-2.1001 1.5496-0.82257 0-2.8718 0.81409-4.5537 1.8091-1.6819 0.99506-3.5317 1.6357-4.1107 1.4237zm-138.81-12.64c-2.5209-4.4457-1.8951-6.462 2.0624-6.644 3.5385-0.16278 10.048-1.5298 12.896-2.708 3.008-1.2445 2.9512 1.3945-0.066559 3.0896-2.1489 1.2071-2.8317 2.1734-2.4276 3.4356 0.3924 1.2252-0.036682 1.9103-1.4192 2.266-1.1952 0.3075-1.7723 1.0464-1.4542 1.862 0.62372 1.599-0.11743 1.7074-2.6297 0.38474-1.2284-0.64673-2.0391-0.64673-2.4453 0-1.0873 1.7307-2.9791 1.0246-4.516-1.6858zm100.98 0.0569c-0.078552-0.95999-0.23444-4.0684-0.34644-6.9075-0.112-2.8392-0.5994-5.4442-1.0832-5.789-0.91263-0.65051-1.6076-1.7021-5.6742-8.5857l-2.4218-4.0993 2.4013-0.5929c2.51-0.61972 8.2478 1.194 8.2478 2.607 0 0.44962 0.66202 0.56763 1.4712 0.26218 0.80911-0.30548 1.4712-0.074768 1.4712 0.51266s0.66202 1.068 1.4711 1.068c1.7351 0 1.9035 1.1185 0.39233 2.605-0.78464 0.77191-0.54355 1.588 0.88397 2.9922 1.0795 1.062 2.2568 2.8421 2.6161 3.9558 0.35931 1.1137 1.0511 2.0249 1.5372 2.0249 0.48612 0 0.63107 0.64816 0.32202 1.4404-0.37311 0.95651-1.3231 1.2524-2.8279 0.88089-1.9441-0.48001-2.5408 0.051605-4.2001 3.7417-2.174 4.8347-4.0434 6.5387-4.2606 3.8835zm-75.147-2.3369c-6.0008-2.9221-8.2678-6.086-7.4608-10.413 0.35577-1.9075 1.0277-3.6138 1.4931-3.7918 0.46548-0.17801 0.59683-0.7207 0.2919-1.206-0.3049-0.48532 0.086487-0.88242 0.86972-0.88242 0.78326 0 1.7012-0.71036 2.0399-1.5786 0.56079-1.4376 0.76794-1.443 2.3207-0.060638 2.1159 1.8837 10.023 1.1738 10.023-0.8999 0-0.76498 1.0312-1.3202 2.4519-1.3202 1.3486 0 2.4519-0.39352 2.4519-0.87448 0-0.48099 0.83108-0.66071 1.8468-0.39941 1.1358 0.29221 2.3721-0.26263 3.2112-1.4411 0.94601-1.3287 2.4847-1.9162 5.0186-1.9162 2.0099 0 3.6542 0.39075 3.6542 0.86835s1.0359 0.86838 2.3019 0.86838 3.3406 0.8862 4.6101 1.9694c2.3029 1.9648 2.3035 1.9706 0.23212 2.5035-2.1672 0.55753-9.1056 10.634-9.1056 13.224 0 2.0177-1.2064 2.6124-7.166 3.5325-7.8856 1.2175-10.897 1.9632-11.91 2.9494-1.3574 1.3215-2.5108 1.1396-7.175-1.1316zm-73.892-2.0682c-0.84625-2.0098-1.6852-2.6639-2.9872-2.329-2.2112 0.56882-3.3633-0.86112-1.3164-1.6338 0.80605-0.30429 1.4656-1.1369 1.4656-1.8503 0-0.71332 1.25-2.4751 2.7777-3.915 2.6744-2.5206 4.8712-3.1691 13.448-3.9698 3.8415-0.35858 3.9727-0.27444 4.189 2.6871 0.23627 3.2356 2.7146 5.8304 4.8124 5.0385 1.8098-0.68317 1.5463 0.14346-0.77307 2.4251-1.6285 1.6021-2.3082 1.7648-3.4564 0.82736-0.78607-0.64182-1.5289-0.99649-1.6507-0.78818-0.12183 0.20825-0.69437 1.2212-1.2723 2.251-1.5076 2.686-3.4055 2.9992-4.0261 0.66455-0.43366-1.6314-0.88168-1.8252-2.3871-1.0325-1.0193 0.53662-1.8533 1.5624-1.8533 2.2795s-1.3034 1.492-2.8965 1.722c-2.4541 0.35434-3.0762-0.008636-4.0732-2.3765zm44.239-3.9422c-4.0069-0.84763-5.6448-1.6997-6.3682-3.3131-0.62451-1.3928-1.5042-1.9624-2.4519-1.5879-0.8129 0.32123-2.4618 0.70068-3.6642 0.8432s-2.8107 0.76898-3.574 1.3922c-1.0773 0.87949-1.7104 0.81561-2.8298-0.28549-0.93005-0.91495-1.7792-1.0868-2.3918-0.4841-1.5523 1.5271-4.2202-0.12222-4.2202-2.609 0-2.4796 0.64825-2.7914 2.8955-1.3929 0.78339 0.48752 1.8868 0.59607 2.4519 0.24121 0.56519-0.35486 2.131-0.71344 3.4796-0.79684 1.3486-0.083405 4.3874-0.7005 6.753-1.3713 3.2401-0.91882 4.741-0.9494 6.0844-0.12408 2.3531 1.4456 3.1256 0.031342 1.8234-3.3382-0.87112-2.2539-0.74948-2.9148 0.72855-3.9586 0.97583-0.68918 2.5608-1.9038 3.5223-2.6992 1.2677-1.0488 2.247-1.1835 3.5635-0.49039 1.412 0.74335 2.3864 0.43527 4.3844-1.3863 2.428-2.2136 2.7771-2.2698 6.3634-1.0251 2.087 0.72436 4.5948 1.2474 5.5731 1.1624 1.2729-0.11069 2.0169 0.80554 2.6168 3.2223 1.3868 5.5874 1.3306 6.1154-0.71066 6.687-1.0789 0.30206-2.0057 1.092-2.0596 1.7553-0.053955 0.6633-0.16428 2.2762-0.24521 3.5842-0.2027 3.2771-3.1902 4.7124-13.878 6.6675-1.3486 0.2467-4.8794-0.064972-7.8462-0.6926zm-24.09-9.3719c-1.5846-1.0306-3.4328-1.6708-4.1071-1.4226-0.67429 0.24814-1.226 0.073883-1.226-0.38724 0-0.93768-3.9397-0.74298-8.1986 0.40512-2.7681 0.74622-2.7951 0.71387-2.087-2.5108 0.3945-1.7968 1.524-4.835 2.51-6.7517l1.7927-3.485-6.0807-2.3528c-5.2298-2.0235-6.0807-2.6957-6.0807-4.8032 0-1.3477-0.54117-3.0945-1.2026-3.8818-0.90208-1.0737-0.92247-1.707-0.081573-2.5342 0.84091-0.82724 0.69879-2.0241-0.56868-4.7892-1.2783-2.7886-1.4532-4.2984-0.71831-6.1999 0.53429-1.3824 0.74313-3.3724 0.46411-4.4221-0.37854-1.424 0.093124-2.0568 1.8577-2.4925 3.0073-0.74255 5.3708-5.2477 3.1858-6.0726-1.8611-0.70254-1.9108-2.2763-0.071991-2.2763 1.7502 0 2.8924-4.8632 2.0395-8.6835-0.62415-2.7954-0.52606-2.8945 2.8644-2.8945 1.9308 0 3.4003 0.32565 3.2655 0.72363-0.28036 0.82739 0.5723 1.206 2.7158 1.206 1.088 0 1.3285-0.63242 0.89166-2.3447-0.53094-2.0811-0.34009-2.2792 1.6977-1.7622 1.2627 0.32034 2.7372 1.1145 3.2766 1.7649 0.5394 0.6503 2.0842 1.464 3.4327 1.8083 2.2377 0.57123 2.2847 0.52393 0.53845-0.54147-2.4575-1.4992-6.9879-6.8013-6.6683-7.804 0.13486-0.42304-0.30649-0.78232-0.98077-0.79846-0.68341-0.016357-0.46942-0.46289 0.48358-1.009 1.6003-0.91714 1.6057-1.1356 0.083405-3.4212l-1.6262-2.4415 3.8397 0.673c4.7069 0.82504 6.3468 2.0995 4.3219 3.3589-1.3172 0.81918-0.69208 1.3529 1.2342 1.0536 0.40457-0.062805 0.73556 0.24616 0.73556 0.68662s1.5447 0.75043 3.4327 0.68881c3.47-0.11328 4.6165 1.0185 2.0235 1.9974-0.77508 0.2926-1.2112 1.0388-0.96921 1.6582 0.49197 1.259 5.3208 1.8391 5.3208 0.63913 0-0.84848 7.3316-4.8196 8.8982-4.8196 0.54538 0 1.9227 0.85336 3.0607 1.8963 1.138 1.043 2.4629 1.6569 2.9443 1.3642 3.0435-1.8505 6.3962 7.076 4.2156 11.224-1.2446 2.3677-1.2083 2.8116 0.3425 4.1923 0.95395 0.8493 2.238 3.6156 2.8533 6.1474 2.4292 9.9946 2.4447 10.639 0.30722 12.742-1.114 1.0959-2.7554 1.9925-3.6475 1.9925-0.89215 0-4.4601 1.5613-7.9289 3.4696-5.801 3.1914-6.2558 3.675-5.6709 6.0302 0.34973 1.4084 2.9247 4.8708 5.7221 7.6945l5.0862 5.1338-3.7302 3.1103c-3.4129 2.8457-3.6423 3.3377-2.6971 5.7834 1.3784 3.5665 1.3305 3.7113-0.79568 2.4051-1.4012-0.86081-2.8344-0.83835-6.1298 0.096191-2.3656 0.67081-5.4044 1.2879-6.753 1.3713-1.3486 0.083405-2.9208 0.44592-3.4939 0.80557-0.57306 0.35965-2.3384-0.18927-3.9231-1.2198zm52.231-4.3434c-3.5486-3.27-3.3892-7.4967 0.30148-7.9922 2.7549-0.36987 5.8846-2.7577 5.8846-4.4897 0-0.62857 1.1034-1.6374 2.4519-2.2419 1.824-0.8176 2.4519-0.81894 2.4519-0.005341 0 0.63495 0.74609 0.42944 1.7788-0.4899 1.3721-1.2216 2.0448-1.3219 2.9423-0.439 0.63995 0.62952 1.1635 1.709 1.1635 2.3989 0 1.6472 1.9779 1.5456 4.3557-0.22366 2.5042-1.8633 7.5134-1.7986 11.669 0.15076l3.341 1.5674-1.5914 3.7295c-1.5202 3.5627-3.313 4.7271-4.4621 2.8982-0.29404-0.46799-2.3054-0.87494-4.4698-0.90433-2.9863-0.040558-4.1923 0.41919-5.0015 1.9067-0.69476 1.277-1.7203 1.7918-2.943 1.4773-1.0321-0.26553-2.1238-0.089355-2.4258 0.39151-0.30209 0.48084-1.6266 0.87424-2.9433 0.87424-1.4742 0-2.394 0.55606-2.394 1.4472 0 0.79602-0.77237 1.4532-1.7163 1.4604-0.944 0.007263-2.5991 0.23999-3.678 0.51718-1.2709 0.32657-2.9309-0.38925-4.7149-2.0332zm-27.604-12.135c-3.4905-3.3777-6.5994-7.2267-6.9088-8.5533-0.49408-2.1188 0.064545-2.7562 4.595-5.2422 6.6032-3.6233 15.508-5.8264 15.508-3.8368 0 0.74814 0.33106 1.289 0.73563 1.202 1.4864-0.31982 6.102 1.3516 5.6629 2.0506-0.24933 0.39688 0.57016 1.6676 1.8211 2.8237 2.0154 1.8626 2.4164 1.9339 3.5202 0.62549 1.1032-1.3077 1.8212-1.1743 6.2771 1.1665 7.1919 3.7781 7.9598 5.0718 4.0506 6.824-1.3486 0.60449-2.4519 1.6862-2.4519 2.4039 0 1.6477-4.3575 4.0067-5.7911 3.1351-0.59082-0.35925-1.0743-0.19962-1.0743 0.35468 0 1.2308-7.1369 0.67609-11.25-0.87439-2.2835-0.86087-3.1315-0.82523-3.9231 0.16473-3.4682 4.3371-4.1083 4.2037-10.772-2.2441zm61.743-1.4601c-4.5719-2.6074-9.9122-2.91-13.061-0.7403-2.0961 1.4443-2.3304 1.389-4.2416-1.0011-1.5579-1.9484-2.3254-2.2829-3.339-1.4554-1.0102 0.82483-1.6137 0.58936-2.5969-1.0132-1.5895-2.5907-15.074-9.5519-14.21-7.3353 0.90842 2.3288-0.83768 2.6863-2.7845 0.57001-1.2865-1.3985-1.3999-1.9069-0.42529-1.9069 2.1002 0-0.3028-1.904-3.0584-2.4234-1.309-0.2467-2.8699-1.1049-3.4688-1.9071-0.59891-0.80216-1.5037-1.4585-2.0106-1.4585-0.50693 0-0.92169-1.4467-0.92169-3.2149 0-5.1234-2.501-13.984-4.4325-15.704-1.5918-1.4171-1.6295-1.8477-0.37195-4.24 1.002-1.9062 1.1503-3.5182 0.52194-5.6737-1.0022-3.4376-0.72647-3.6697 7.4926-6.3084 2.7905-0.89587 5.5413-2.1833 6.113-2.8609 1.504-1.7827 11.306-4.8676 13.197-4.1535 0.88373 0.33362 1.6068 1.4461 1.6068 2.4721 0 2.2074 5.2186 4.3607 7.6978 3.1762 2.2492-1.0745 24.479-0.74762 25.515 0.37521 0.93527 1.0139 4.0566 12.921 4.0566 15.475 0 0.89142-1.1894 2.7051-2.6432 4.0306-2.6209 2.3895-2.6266 2.4229-0.67627 3.9765 1.4684 1.1698 1.9394 2.6411 1.8587 5.8066-0.06308 2.4737 0.69757 5.8418 1.8262 8.0858 1.6766 3.3337 1.7435 3.9891 0.50168 4.9196-0.78793 0.59045-3.322 3.1084-5.6311 5.5955-3.6859 3.9698-4.0608 4.7751-3.0706 6.5953 1.5524 2.8535 1.0785 2.8972-3.4444 0.31781zm-119.06-4.5718c-1.1363-1.1899-2.066-2.9625-2.066-3.9392 0-1.6593-0.11772-1.671-1.7936-0.17902-1.9038 1.6949-3.1861 2.0688-2.9941 0.87314 0.35916-2.2377-0.41452-3.3384-2.9602-4.2114-1.5642-0.53644-3.078-1.8553-3.3639-2.9308-0.39034-1.4684-1.0256-1.7976-2.5502-1.3215-1.5475 0.48322-2.0304 0.21478-2.0304-1.1287 0-2.5057 3.4834-4.4558 5.7901-3.2414 1.336 0.7034 2.8338 0.47241 5.6168-0.86624 2.165-1.0414 3.9446-1.4171 4.1431-0.87472 0.19144 0.52286 1.4052 1.346 2.6971 1.8292 1.6222 0.60675 2.3491 1.6324 2.3491 3.3146 0 1.4961 0.55431 2.436 1.4366 2.436 1.9896 0 3.5534 3.1341 2.433 4.8762-0.49353 0.76743-0.9175 0.96112-0.94217 0.43042-0.024658-0.53064-0.49968-0.19626-1.0556 0.7431-0.55591 0.93939-0.75002 2.5161-0.43132 3.5039 0.88084 2.7302-1.9006 3.1765-4.2785 0.68655zm5.0841-0.5937c-0.11314-1.5909 0.16383-2.8926 0.61549-2.8926 1.53 0 3.0602 2.6412 2.4445 4.2195-1.0041 2.574-2.8392 1.7783-3.06-1.3269zm-76.221-7.4755c5.1519-6.7576 6.6397-7.9258 10.116-7.9432 3.2774-0.016449 4.8846-1.231 7.0442-5.3233 0.87819-1.6642 0.84218-1.7191-0.26176-0.39883-0.70404 0.84201-2.3093 2.0703-3.5672 2.7296-1.9276 1.0102-2.4752 0.94565-3.4836-0.41101-0.65807-0.88534-1.8356-1.5024-2.6168-1.3713-0.78114 0.13107-2.1982-0.095795-3.1491-0.50418-1.0157-0.43625-2.3306-0.25125-3.1875 0.44836-0.80228 0.655-1.4915 1.0292-1.5315 0.83157-0.86662-4.273-0.78732-4.4556 2.3063-5.3141 2.165-0.60071 3.7006-1.9342 4.8742-4.2326 1.007-1.9722 1.3077-3.489 0.72946-3.6792-0.54112-0.17798-0.73436-0.7207-0.42947-1.206 0.30492-0.48529-0.14922-0.88238-1.0092-0.88238-1.2596 0-1.3595-0.37509-0.51376-1.9297 1.1334-2.0834 6.2532-2.7198 7.3852-0.918 0.43604 0.69403 1.0615 0.66394 1.9921-0.095795 1.1498-0.93878 1.1314-1.329-0.12117-2.5612-0.90184-0.88721-1.1457-1.8838-0.62575-2.5575 1.4338-1.8578 0.86093-6.8928-0.78421-6.8928-3.0996 0-3.7158-4.5458-0.98077-7.2363 1.9616-1.9297 1.9616-1.9297-0.49039-1.9297-1.3486 0-2.4519 0.3877-2.4519 0.8616 0 1.4227-3.0988 2.1414-4.4559 1.0335-0.94282-0.76978-1.3482-0.6073-1.592 0.63809-0.30988 1.5826-0.41721 1.5822-2.033-0.007416-1.6207-1.5943-1.6088-1.8654 0.23788-5.4264 1.2486-2.4077 1.5814-3.9686 0.9304-4.3644-0.55734-0.33887-0.7238-1.5136-0.36989-2.6105 0.48908-1.5159 0.29199-1.8618-0.82138-1.4415-0.80565 0.30414-1.96 0.065918-2.5651-0.52942-0.8132-0.79999-1.1183-0.71738-1.1692 0.31659-0.041733 0.84695-0.37866 0.63754-0.85384-0.53064-0.51689-1.2708-0.14429-3.2475 1.0912-5.789l1.8761-3.8593-2.3979 2.7926c-1.5459 1.8004-2.9546 2.5825-3.9646 2.2012-2.0972-0.79169-1.9974-2.5625 0.14973-2.6578 0.94405-0.041901 1.186-0.28816 0.5377-0.5473-0.87331-0.34908-0.74628-1.3916 0.49039-4.0244 0.91797-1.9543 2.1104-3.8722 2.6498-4.2621 0.55383-0.40028 0.23364-0.71526-0.73558-0.72362-2.5609-0.022034-2.3654-5.4711 0.22527-6.28 1.0679-0.33342 1.8601-0.9054 1.7605-1.2711-0.099609-0.36565 0.34973-2.1844 0.99857-4.0418l1.1797-3.3769 6.3772-0.0895c7.4499-0.10457 8.1018 0.97855 2.9261 4.8621-1.8981 1.4242-3.2038 2.9831-2.9016 3.4642 0.30225 0.48108-0.18158 1.9724-1.0752 3.314-1.8234 2.7377-1.0916 3.0253 2.524 0.99208 2.6461-1.488 12.311-1.9611 13.14-0.64314 1.0059 1.6011-4.1671 12.214-6.7048 13.756-3.6175 2.1979-4.3291 3.1513-1.7759 2.3792 3.7261-1.1267 2.4418 0.92114-1.4448 2.3037-3.5184 1.2516-3.5668 1.3297-1.329 2.1441 1.2774 0.46484 3.0669 0.61276 3.9766 0.3287 2.293-0.71594 8.0614 3.3422 8.9042 6.2642 0.38266 1.3267 1.191 4.2054 1.7962 6.3973 0.83777 3.0338 1.8108 4.2747 4.076 5.1977 4.2556 1.7341 5.0978 3.8279 2.7076 6.7317l-1.9691 2.3922 2.9677 1.1913c3.6765 1.4758 4.8707 4.596 2.6732 6.9848-1.4857 1.615-1.4757 1.789 0.13808 2.3982 0.95698 0.36124 1.8955 0.19782 2.0856-0.36322 0.49585-1.4634 5.2507-1.2014 7.4114 0.40836 2.8239 2.1038 1.4246 7.7596-2.4014 9.7059-1.6117 0.81992-2.6978 1.8609-2.4136 2.3134 0.28424 0.45245-0.17064 1.0822-1.0109 1.3994-2.3774 0.89746-0.64041 2.52 2.6977 2.52 2.6064 0 2.8368 0.19876 1.7392 1.4999-2.2469 2.6633-5.2338 3.7312-10.744 3.8412-10.854 0.21668-12.865 0.44891-12.258 1.4157 0.67931 1.0812-2.2554 0.84647-4.1789-0.33435-1.9173-1.177-4.7298 0.12491-5.9469 2.7528-0.96632 2.0864-1.3967 2.2531-3.4456 1.3348-1.8192-0.8154-3.0169-0.70575-5.3709 0.49176-4.4191 2.2481-4.6492 1.946-1.5821-2.0769zm73.975-8.3167c-1.3486-0.58087-2.9787-1.5511-3.6225-2.1559-0.64383-0.60492-2.4092-0.93643-3.9231-0.73669l-2.7525 0.3631 2.8178-1.307 2.8179-1.307-2.9532-0.5811-2.9532-0.581 2.3421-4.551c1.2882-2.503 2.3421-5.1287 2.3421-5.8348 0-0.70608 0.46785-1.2837 1.0397-1.2837 0.60519 0 0.84518 1.2138 0.57431 2.9047-0.61101 3.8139 2.4854 5.8293 5.2181 3.3964 1.46-1.2999 1.5731-1.9787 0.65399-3.9287-0.61108-1.2965-1.4421-2.3607-1.8466-2.3649-1.5848-0.016235-0.68546-4.714 0.98077-5.1233 8.4896-2.0853 13.187 2.1506 7.8462 7.0754-2.0506 1.8909-2.088 2.121-0.52798 3.2527 1.4848 1.077 1.5158 1.4467 0.26807 3.1991-0.77588 1.0897-2.5341 2.2587-3.9071 2.5977-2.0951 0.5173-2.336 0.91126-1.4986 2.4505 0.54877 1.0087 0.66884 2.675 0.26678 3.7028-0.62259 1.5917-1.0946 1.7122-3.1829 0.81265zm173.5-1.5729c-0.30774-0.79602-1.8467-1.5332-3.4201-1.6383-1.5733-0.1051-6.1164-0.3858-10.096-0.62375-3.9793-0.23801-7.5101-0.85187-7.8462-1.3641-1.7529-2.672-18.859-3.2429-21.688-0.72382-2.1986 1.9574-3.9452 1.2296-3.2575-1.3573 0.32101-1.2076-0.207-2.2134-1.5267-2.9083-2.1728-1.144-1.8555-3.9272 0.44769-3.9272 2.0707 0 2.6952-4.275 1.4002-9.5855-1.3421-5.5038-0.86359-6.8666 2.2069-6.2849 2.6804 0.50784 5.831-0.38648 5.1546-1.4632-0.4646-0.7395 4.0329-2.4577 5.5831-2.133 0.38516 0.080658 0.46539-0.45544 0.17831-1.1914-0.28705-0.73593-0.050507-1.6247 0.5257-1.975 0.5762-0.35034 1.0476-1.2626 1.0476-2.0273 0-1.526 3.4039-5.2496 4.7989-5.2496 1.2915 0 2.1252-2.7144 0.95187-3.0992-0.65622-0.21521-0.58551-1.2338 0.20401-2.9385 0.95563-2.0633 1.6826-2.492 3.4749-2.0495 1.6899 0.41727 2.8917-0.13971 4.724-2.1893 1.3516-1.5119 2.4714-2.2198 2.4884-1.5731 0.017059 0.64664 0.69302 0.92584 1.5021 0.62039 0.80917-0.30548 1.4712-0.049103 1.4712 0.56964s0.40149 0.88089 0.89227 0.58252c1.4983-0.91095 3.9214 0.50183 3.3543 1.9557-0.63318 1.6232 0.79562 1.8102 2.3262 0.30444 1.6126-1.5864 6.3665 0.98163 7.9914 4.3168 1.0217 2.0971 1.0837 3.3108 0.2601 5.0891-0.85773 1.8519 3.6019 9.482 4.5459 10.175 0.944 0.69342 1.7164 1.9114 1.7164 2.7067 0 0.79532 0.66202 1.489 1.4712 1.5415 3.4317 0.22281 4.0091 0.43677 3.4746 1.2876-0.31033 0.49399-0.11569 1.1709 0.4325 1.5042 1.6768 1.0194 1.1186 2.4086-1.4261 3.5492-1.8102 0.8114-2.7694 0.80313-3.793-0.032593-1.6812-1.3726-4.1927 1.0276-3.0232 2.8891 0.40564 0.64569 1.0476 2.8417 1.4264 4.88 0.61914 3.3308 0.46103 3.7623-1.5617 4.2617-3.0849 0.76169-5.1079 3.2032-5.5131 6.6536-0.20773 1.769-0.55746 2.3317-0.89935 1.4473zm-278.56-1.735c-0.063889-0.37238-0.063889-1.0027 0-1.4007 0.063889-0.39801-0.35126-0.72363-0.92252-0.72363s-0.75494-0.4516-0.4082-1.0035c0.40997-0.65259-0.34148-0.79465-2.1489-0.40622l-2.7793 0.5973 2.2905-1.831c1.2974-1.0371 2.1479-2.6161 1.9616-3.6417-0.25118-1.3824 0.59894-2.0909 3.5941-2.9952 3.417-1.0317 3.5752-1.1941 1.226-1.2587-3.2173-0.08844-3.6233-2.3833-0.73558-4.1574 2.838-1.7435 2.4157-2.6685-1.226-2.6854-1.7531-0.008118-3.8354-0.41785-4.6272-0.91052-1.2116-0.75378-1.095-1.1898 0.73558-2.7517 2.7068-2.3095 2.7949-4.0417 0.20543-4.0417-1.7244 0-1.8172-0.24051-0.74486-1.9297 1.3692-2.1569 4.2489-2.573 5.0075-0.72363 0.39067 0.95245 0.51097 0.94861 0.57211-0.018372 0.052979-0.8378 0.90263-1.0207 2.6906-0.57922 2.1458 0.52978 2.5043 0.36603 2.0044-0.91556-1.1895-3.0495 1.5286-2.7834 4.3445 0.42523l2.8599 3.2588 1.9134-2.4121c1.0523-1.3267 1.9232-1.8863 1.9352-1.2436 0.011993 0.64264 0.96159 2.0298 2.1102 3.0825 2.3232 2.1292 3.836 11.132 2.6092 15.528-1.4273 5.1144-1.9364 5.8774-3.2215 4.8282-0.89948-0.73438-1.4977-0.75006-1.937-0.050812-0.34959 0.55643-1.3942 1.0117-2.3213 1.0117-0.92714 0-2.473 0.90454-3.4352 2.0101-0.96223 1.1055-2.3559 1.7812-3.0969 1.5015-0.74106-0.27978-1.5008-0.055817-1.6884 0.49759-0.41098 1.2129-6.6022 3.902-6.7673 2.9393zm230.01-29.55c-0.48773-1.0823-1.8166-2.4187-2.9531-2.9698-1.652-0.80112-1.8986-1.448-1.2301-3.2259 1.0799-2.8719-0.95529-4.9723-4.818-4.9723-3.6296 0-5.718-2.324-6.5428-7.2812-0.54272-3.2616-0.30072-4.2145 1.4701-5.789 1.7883-1.5901 3.3115-1.8419 9.7415-1.6106 4.192 0.15076 8.6472 0.46838 9.9005 0.70584 1.2533 0.23743 2.6388-0.10303 3.079-0.75653 0.59921-0.88974 1.0544-0.7641 1.8118 0.50021 0.55634 0.92865 1.7857 1.6884 2.732 1.6884 2.6966 0 8.3484 6.2658 7.7345 8.5749-0.28448 1.0702-0.01239 2.1494 0.60461 2.3983 0.617 0.24884 0.34949 0.48676-0.59451 0.52866-0.94397 0.041901-1.7163 0.72742-1.7163 1.5234 0 0.79599-0.66205 1.4472-1.4712 1.4472-0.88339 0-1.4712 0.89102-1.4712 2.2302 0 2.559-3.2969 6.4534-5.4633 6.4534-0.80505 0-1.6992 0.6037-1.987 1.3415-0.86096 2.2072-7.7542 1.5927-8.8265-0.78674zm-208.92 0.3787c-1.1387-0.42456-2.3852-1.5681-2.77-2.5412-0.64972-1.6429-0.83452-1.6066-2.5884 0.50858l-1.8887 2.2778-1.8378-2.2327c-1.8308-2.2242-1.8239-2.2463 1.807-5.7826 4.661-4.5396 7.762-5.5912 9.5187-3.2279 0.71538 0.96243 1.3007 2.5352 1.3007 3.4952 0 0.9599 0.44134 1.7453 0.98077 1.7453 1.5694 0 1.1334 2.8172-0.73558 4.7524-1.2277 1.2712-2.3058 1.5574-3.7867 1.0052zm137.52-3.4188c-0.81454-2.0881-0.43106-2.4654 1.3842-1.3617 1.0503 0.63855 1.1432 1.1588 0.34702 1.942-0.7962 0.78326-1.26 0.62781-1.7312-0.58032zm-151.83-4.524c0.63539-0.75314 0.94334-1.5778 0.68436-1.8326-0.259-0.25476 1.3186-1.4526 3.5057-2.6619s4.221-1.9582 4.5198-1.6643c0.29875 0.29392-0.30341 1.9659-1.3381 3.7156-1.446 2.445-2.6502 3.2542-5.2041 3.4969-2.7766 0.26386-3.1329 0.090668-2.1676-1.0536zm121.56-1.3745c-1.1354-0.2919-1.7164-1.3854-1.7164-3.231 0-1.6823-0.68964-3.1529-1.7373-3.7045-1.4589-0.76807-1.7232-2.1879-1.6487-8.8566 0.078796-7.0581 0.33881-8.1412 2.3364-9.7324 1.2363-0.98479 3.1251-1.7905 4.1975-1.7905s3.2504-1.3696 4.8399-3.0436c3.8437-4.0479 5.6866-2.635 3.82 2.9288-1.6371 4.88-0.71887 8.7983 2.0619 8.7983 1.737 0 1.8669 0.2323 0.8223 1.4706-0.68234 0.80881-1.4681 1.2468-1.7462 0.97321-0.9375-0.92224-3.0263 1.5441-2.4844 2.9334 0.33267 0.8529-0.084686 1.3767-1.097 1.3767-0.89868 0-1.3612 0.43414-1.0278 0.96481 0.3334 0.53064 0.028412 0.96622-0.6777 0.96793-0.86328 0.002045-1.2924 1.4243-1.3098 4.3418-0.014282 2.3863 0.42706 4.3453 0.98077 4.3534 0.55371 0.008148 0.34473 0.43567-0.46445 0.95007-1.5418 0.98019-2.3249 1.0258-5.149 0.29974zm19.164-2.6723c-1.7315-1.214-2.9095-2.4422-2.6177-2.7292 0.29181-0.28708 0.061859-1.3836-0.51105-2.4366-0.92203-1.6949-0.52081-2.1555 3.496-4.0129 3.646-1.686 4.6993-1.8474 5.3606-0.82126 1.1562 1.7941 1.0562 4.8913-0.13464 4.1673-0.54321-0.33026-1.2696 0.1221-1.6141 1.0053-0.34448 0.88318-0.083679 1.9357 0.57956 2.339 0.88544 0.53833 0.76373 0.90012-0.45792 1.3613-1.3519 0.51032-1.4367 0.89734-0.45254 2.0639 1.7462 2.0699 8.24e-4 1.6217-3.6482-0.93668zm63.336 1.5068c0.73795-0.4599 1.7242-1.4301 2.1917-2.1561 0.62619-0.97238 0.85394-0.74829 0.86502 0.85095 0.0112 1.6168-0.54825 2.1671-2.1917 2.1561-1.6257-0.010864-1.8534-0.23496-0.86502-0.85095zm-41.594-1.1281c-1.0556-1.6802 0.14667-2.036 1.4918-0.44153 0.77359 0.91696 0.84802 1.4706 0.19766 1.4706-0.57367 0-1.3339-0.46307-1.6895-1.029zm-11.688-3.7294c-0.35611-0.56683-0.42364-1.3869-0.15002-1.8224 0.27359-0.43549-0.3559-2.1722-1.3989-3.8593s-1.4615-3.0675-0.92996-3.0675c1.2114 0 1.2785-6.0449 0.080841-7.2845-1.8904-1.9567-8.2339-15.333-9.5134-20.06-1.6091-5.9454-1.8393-10.578-0.41538-8.362 1.5787 2.4565 3.4696-0.54872 3.3645-5.3472-0.051727-2.3612 0.32651-4.2931 0.84052-4.2931s0.71069-0.57388 0.4371-1.2753c-0.27359-0.7014 0.29852-1.7643 1.2714-2.362 2.2129-1.3595 3.2875-7.4166 2.0508-11.559-0.72061-2.4137-0.6395-3.1357 0.35214-3.1357 1.1064 0 2.4411-2.7212 2.4845-5.0654 0.007355-0.398-0.97968-1.7005-2.1934-2.8945-1.6848-1.6575-2.2525-3.4258-2.4004-7.4775-0.10654-2.9186-0.26767-6.392-0.35806-7.7187-0.090424-1.3266-0.094177-3.7146-0.008331-5.3066s0.12378-3.5458 0.08432-4.3418c-0.25186-5.0798 2.6597-11.058 5.8743-12.062 0.98474-0.30746 2.9203-0.28004 4.3012 0.060898 2.0391 0.50346 2.7186 0.17123 3.617-1.7686 1.1493-2.4814-0.099121-6.492-2.0208-6.492-0.49213 0 0.39536-2.7136 1.9722-6.0302 2.1633-4.5502 2.933-7.7143 3.136-12.892 0.26282-6.7037 0.33679-6.8814 3.2114-7.7187 2.246-0.65418 2.9455-1.4278 2.9557-3.2691 0.007355-1.3266 1.1515-4.1488 2.5425-6.2714 4.886-7.4559 5.0921-7.003 3.3984-9.5459-1.8981-2.8498-1.9197-3.3462-0.14575-3.3462 0.76727 0 1.9265-1.6282 2.5759-3.6181 0.64944-1.99 1.8358-4.3566 2.6363-5.2591 1.296-1.4612 1.6945-1.4868 3.6383-0.2339 2.0263 1.3061 2.2647 1.2302 3.3244-1.0578 0.6279-1.3556 1.1416-3.964 1.1416-5.7963s0.44134-3.3315 0.98077-3.3315c0.5394 0 0.98077 0.43417 0.98077 0.96484 0 0.53066 0.9046 0.96483 2.0102 0.96483s3.3907 0.70227 5.0779 1.5606c2.8828 1.4665 3.148 1.4527 4.3987-0.23009 0.80649-1.085 0.94113-1.9185 0.34168-2.1151-0.57715-0.18926-0.32904-1.3158 0.59558-2.704 1.263-1.8963 1.3617-2.8614 0.48602-4.7521-0.8765-1.8924-0.82663-2.3726 0.24634-2.3726 0.73984 0 1.5881 0.62269 1.885 1.3838 0.29688 0.76106 3.7242 3.5837 7.6163 6.2726 9.3636 6.469 12.057 10.385 11.779 17.128-0.11594 2.8191 0.21191 5.1256 0.72858 5.1256 0.51663 0 0.72198 0.81764 0.45636 1.817-0.26566 0.99934 0.18243 1.9848 0.99576 3.532 1.1636 2.2136 1.2731 3.7617 0.51376 7.2641-0.64654 2.9822-0.63049 5.6729 0.048615 8.154 0.55746 2.0366 1.0263 4.101 1.0418 4.5874 0.042847 1.3425-6.5216 1.0568-8.2561-0.35935-1.112-0.90791-1.5234-0.93594-1.5234-0.10386 0 0.62695-0.44134 0.87158-0.9808 0.54361-0.56986-0.34648-0.98074 0.60595-0.98074 2.2734 0 1.9254-0.94913 3.7509-2.8844 5.5478-1.5864 1.473-2.6518 3.0485-2.3674 3.5011 0.28433 0.45262-0.27985 1.9978-1.2538 3.4338-2.0174 2.9745-1.9052 4.9743 0.37607 6.7044 1.4275 1.0826 1.3531 1.4377-0.76682 3.6576-1.2913 1.3522-2.8057 3.8357-3.3652 5.5189-0.7179 2.1594-2.4609 3.8826-5.9213 5.8538-4.4779 2.5508-13.24 11.813-13.24 13.996 0 0.5006-1.1329 1.6404-2.5176 2.5329-1.8821 1.2131-2.254 1.9352-1.4733 2.8606 0.75424 0.89406 0.48608 2.8187-0.96573 6.9305-1.5531 4.3987-1.8667 6.9408-1.3795 11.183 0.57288 4.9886 0.8757 5.5435 3.3126 6.07 2.815 0.60823 9.8889 8.6949 9.8889 11.305 0 0.78566-1.2093 1.9705-2.6874 2.633-2.5104 1.1252-2.5711 1.2882-0.92206 2.4744 1.9019 1.3681 0.56824 3.07-1.446 1.8453-0.62772-0.38164-0.86865-0.26872-0.54065 0.25336 0.32544 0.51799-0.24091 1.6431-1.2586 2.5003-1.3239 1.1152-1.985 1.2328-2.3242 0.41333-0.29318-0.70827-0.50021-0.59303-0.54263 0.30211-0.03772 0.796-1.4174 2.5382-3.0659 3.8715-2.648 2.1418-3.0533 3.1537-3.4784 8.6835-0.26465 3.4426-0.7504 7.1276-1.0795 8.1889s-0.68573 3.3383-0.79248 5.06c-0.10672 1.7217-1.0082 4.9064-2.0032 7.0771-1.7971 3.9205-1.8372 3.9426-6.0361 3.3232-3.5037-0.51688-4.2269-0.35608-4.2269 0.93973 0 0.85983-0.39133 1.3254-0.86963 1.0346-1.3509-0.82132-3.1052 1.8434-2.8199 4.2833 0.18488 1.5812-0.29239 2.2576-1.7048 2.4162-1.0789 0.12112-2.6893 0.52295-3.5787 0.89294-0.88946 0.36996-1.9085 0.20889-2.2646-0.35794zm90.841-6.3043c-1.6738-1.8754-3.7806-3.4098-4.6816-3.4098s-2.1908-0.74341-2.8662-1.652c-0.91733-1.2341-1.5649-1.3875-2.5601-0.60632-0.73264 0.57516-1.9941 0.94076-2.8032 0.8125-0.80914-0.12824-4.7327-0.50452-8.719-0.83615-6.2844-0.52286-7.6859-0.33667-10.543 1.4006l-3.2955 2.0036 0.0061-2.732c0.003296-1.5026 0.66534-3.9756 1.4712-5.4956 0.80582-1.52 1.4719-3.6909 1.4801-4.8242 0.020416-2.8014 0.93842-3.8434 4.3985-4.9926 2.6063-0.86565 3.1943-0.68303 5.149 1.5991 1.2137 1.417 2.2068 3.0411 2.2068 3.6091 0 0.56805 0.88269 1.4975 1.9616 2.0656 3.9493 2.0792 8.4872-2.651 7.3651-7.6771-0.53036-2.3755-0.20175-2.941 2.4713-4.2528 3.4834-1.7095 5.4771-0.93105 9.6201 3.7564 1.6583 1.8762 2.5629 2.2368 3.8433 1.532 1.1771-0.64803 2.4968-0.44403 4.4426 0.68671 2.4572 1.4279 2.7096 2.02 2.2472 5.2721-0.2915 2.0501-0.13376 3.4282 0.35812 3.1291 0.48346-0.29394 1.39 0.98863 2.0145 2.8501 1.0148 3.025 0.893 3.6899-1.1469 6.2589-1.531 1.928-2.9163 2.7346-4.2078 2.4499-1.059-0.23343-2.6551 0.22522-3.5469 1.0192-1.4616 1.3012-1.9217 1.1073-4.6649-1.9662zm-55.084-17.928c0-2.7737 3.8488-7.6726 6.0279-7.6726 1.4395 0 0.91412 1.9613-0.68735 2.5659-0.89243 0.33688-1.4058 1.4692-1.2379 2.7301 0.28821 2.1636-1.6346 5.3172-3.2419 5.3172-0.47339 0-0.86069-1.3232-0.86069-2.9406zm56.25-4.023c-2.6242-3.1955-7.0691-5.7806-8.4645-4.9228-2.6209 1.6111-3.8572 1.1618-3.3919-1.2327 0.48511-2.4964-1.0033-4.2546-2.1102-2.4927-0.80206 1.2767-2.1677 0.38486-3.7959-2.4788-0.99185-1.7445-0.99185-2.1738 0-2.1856 0.76282-0.00914 0.85965-0.28555 0.25351-0.72362-0.53943-0.38988-1.1244-1.7179-1.2999-2.951-0.22903-1.6093 0.25543-2.39 1.7163-2.7658 1.1195-0.28799 2.0355-0.83749 2.0355-1.2211 0-1.2226 5.062-3.0175 6.8956-2.445 0.9715 0.30333 2.0134 0.1582 2.3154-0.3225 0.65765-1.0468 3.979-0.74564 7.7713 0.70453 1.5185 0.58069 4.6927 1.0558 7.0537 1.0558h4.2928l-2.3832 4.1006c-2.5185 4.3333-3.1245 10.145-1.3903 13.332 0.7926 1.457 0.59302 2.316-0.90567 3.8985-1.0572 1.1164-2.4168 1.7292-3.0212 1.3617-0.60437-0.36745-1.6964-0.18019-2.4268 0.41612-1.0237 0.83578-1.7442 0.57735-3.1445-1.1279zm-137.25-5.4408c0.28555-0.45448-1.2331-2.2117-3.3748-3.9048-2.4326-1.9231-3.8884-3.8761-3.879-5.2039 0.012192-1.726 0.19366-1.8534 0.96576-0.67816 0.74676 1.1368 0.95395 1.1632 0.96574 0.12308 0.012604-1.1102 0.29237-1.1154 1.7314-0.031815 0.94398 0.71082 1.3715 0.89508 0.95001 0.40948-0.42149-0.48558 0.24054-1.4517 1.4712-2.1469 2.1531-1.2163 2.1264-1.2426-0.70483-0.69574-2.247 0.43401-2.5946 0.32536-1.4712-0.45978 0.80913-0.56548 1.0298-1.0486 0.49039-1.0736-0.53943-0.025009-0.12407-0.68294 0.92304-1.462 1.3727-1.0214 1.5095-1.4252 0.49039-1.4473-1.0662-0.023163-0.9791-0.35469 0.35492-1.3498 1.2516-0.93368 1.4069-1.4377 0.53126-1.7248-1.615-0.52957-6.8795 2.0599-6.244 3.0713 0.26932 0.42866-0.38806 1.0052-1.4608 1.2812-2.32 0.59683-2.554-0.67238-0.44533-2.4152 0.82785-0.68426 2.0994-1.7661 2.8256-2.4042 0.72618-0.63805 1.5307-0.95319 1.7877-0.7003 0.25706 0.25288 1.082-0.28326 1.8331-1.1914 1.1889-1.4375 1.1638-1.577-0.19438-1.0774-0.85806 0.3156-2.1821 0.18645-2.9423-0.287-0.76022-0.47342-0.90137-0.86743-0.31369-0.87556 0.58771-0.008118 1.6345-1.2087 2.3263-2.6681 1.1794-2.4881 1.0009-3.5141-0.29422-2.3171-2.2476 2.0772-2.377 2.0924-2.8446 0.33347-0.26942-1.0135-0.082336-2.5592 0.41574-3.4347 0.96907-1.7035 0.1985-3.8511-1.0988-3.0624-0.43004 0.26149-1.5416-0.35039-2.4701-1.3597-1.6326-1.7747-1.5319-1.8567 3.0564-2.4895 7.558-1.0423 2.8628-1.8716-0.40442-1.82-5.8621 0.092575-6.6243-0.78383-1.9616-2.2553 2.9314-0.9251 2.9905-1.0193 0.73558-1.1722-2.265-0.15362-2.3024-0.22954-0.49039-0.99551 1.0788-0.45607 1.3838-0.85974 0.67769-0.89702-0.70612-0.037323-1.0111-0.50201-0.67769-1.0327 0.33337-0.53066-0.13597-0.96484-1.043-0.96484-1.3547 0-1.4311-0.25838-0.42818-1.4472 1.6268-1.9284 3.5991-1.8298 4.8253 0.24121 0.54984 0.92865 1.0131 1.1706 1.0295 0.53781 0.016403-0.63286 0.8398-0.99719 1.8298-0.80963 0.98998 0.18753 2.4244-0.047821 3.1875-0.52306 1.6253-1.0121 1.2273-1.0922-8.7854-1.7676-1.1095-0.074829-1.1223-0.356-0.072784-1.6001 0.85753-1.0165 2.0977-1.3092 3.798-0.89656 1.9974 0.48474 2.2758 0.36365 1.3329-0.57979-0.93709-0.93764-0.83229-1.4612 0.49039-2.4497 2.6785-2.0017 4.1316-1.5361 4.1654 1.3348 0.029633 2.5192 0.10269 2.5604 1.4455 0.81493 1.2606-1.6385 1.1952-2.0253-0.60101-3.5579-1.1085-0.94572-2.6416-1.4831-3.4071-1.1941-0.76546 0.28894-1.3917-0.016006-1.3917-0.67767 0-0.88228 1.5036-1.0629 5.6395-0.67743 3.1016 0.28909 4.789 0.20866 3.7496-0.17871-2.5369-0.9455-0.10873-1.9041 3.7638-1.4859 2.0649 0.22299 2.5004 0.019699 1.6821-0.78528-1.6179-1.5916-1.3492-3.0663 0.31168-1.7103 1.1603 0.94731 1.3882 0.79452 1.2624-0.8467-0.08432-1.1014-0.83176-2.0369-1.661-2.0788-0.82922-0.041901-0.20374-0.54182 1.3899-1.111 3.5023-1.2508 7.4612-4.6019 5.4365-4.6019-0.89383 0-0.70902-0.46336 0.5444-1.365 2.0612-1.4827 3.6065-0.33533 2.6951 2.0011-0.33472 0.85805 0.27371 1.2886 1.8071 1.2788 1.8524-0.011841 2.0194-0.20061 0.84052-0.95007-1.1164-0.70972-0.70245-0.93884 1.7163-0.95006 2.4914-0.011536 3.1875-0.42197 3.1875-1.8794 0-1.0256 0.83511-2.1254 1.8558-2.4441 1.2202-0.381 1.808-1.3943 1.7163-2.9588-0.17041-2.9085-1.6332-3.024-4.6894-0.37036-1.6757 1.4549-1.8412 1.8632-0.59903 1.4775 2.6508-0.82301 2.028 0.88678-0.78174 2.1462-3.5111 1.5738-4.8789 1.4414-3.3866-0.32753 1.0111-1.1985 0.9053-1.4498-0.61551-1.462-1.4728-0.011841-1.5595-0.18721-0.4379-0.88548 0.7692-0.4789 1.5503-1.8493 1.7359-3.0452 0.42404-2.7334 2.0779-4.738 3.909-4.738 0.77493 0 1.1362-0.43417 0.8028-0.96483-0.33337-0.53066-0.16071-0.96483 0.38379-0.96483 0.54443 0 1.3428 0.60644 1.7742 1.3477 0.67142 1.1537 0.96637 1.1537 2.049 0 0.69553-0.74124 0.9162-1.3782 0.49036-1.4155-0.42581-0.037292 0.10846-0.44095 1.1873-0.89702 1.8032-0.7623 1.7637-0.83726-0.49039-0.92912l-2.4519-0.0999 2.3154-1.8976c1.2735-1.0437 1.96-1.8976 1.5258-1.8976-0.4343 0 0.67084-1.06 2.4558-2.3555s3.9366-3.3578 4.7814-4.583c1.5045-2.1818 1.4959-2.1931-0.4202-0.5522-1.509 1.2923-2.2222 1.4136-3.1197 0.53067-2.0351-2.002-1.4134-3.8612 1.0355-3.0966 1.9544 0.61021 2.0502 0.51019 0.86139-0.89896-1.0873-1.2889-1.1114-2.1229-0.12839-4.4574 1.0684-2.5376 1.4534-2.746 3.3068-1.7902 1.997 1.0298 2.0196 0.99394 0.47296-0.74712-1.4475-1.6294-1.463-1.9749-0.14157-3.1681 1.1402-1.0296 1.6532-1.0685 2.219-0.16794 0.52978 0.84325 1.5309 0.47077 3.5743-1.3298l2.8384-2.5012-2.4519 0.1659c-1.3486 0.091225-3.4765 0.098351-4.7287 0.015823-1.8816-0.12401-2.0518-0.36877-0.9808-1.4101 0.71286-0.69303 2.1664-1.5847 3.2301-1.9816 1.6221-0.60516 1.7012-0.86642 0.49036-1.6197-1.1771-0.7323-1.0814-0.91341 0.51788-0.98075 1.9616-0.082588 1.9616-0.082588 0-0.9118s-1.9616-0.82921 0-0.9118c1.5416-0.064911 1.665-0.26724 0.57651-0.94509-1.1708-0.72906-1.1328-1.1106 0.24521-2.4662 0.89661-0.88206 1.6436-1.2471 1.66-0.81119 0.016418 0.4359 0.47607 0.039093 1.0215-0.8818 1.0559-1.7827 5.3791-2.038 7.5305-0.44463 0.85477 0.6331 1.226 1.5377 1.226 0.45906 0-1.4334-1.3448-2.0174-6.3638-2.7633-1.8596-0.27638-1.8396-0.39873 0.42908-2.6306 1.4958-1.4714 2.5236-1.9152 2.7676-1.195 0.21353 0.63016 0.97668 1.1457 1.6959 1.1457 0.71924 0 1.4548 0.41998 1.6346 0.9333 0.17984 0.51332 0.83603-0.1357 1.4582-1.4422 1.0594-2.2245 0.98144-2.3386-1.226-1.7936-1.7832 0.4403-2.3573 0.19027-2.3573-1.0268 0-0.88483 0.35211-1.3947 0.78244-1.1331 0.43033 0.26163 1.35 0.13058 2.0438-0.29122 0.98529-0.59904 0.92822-0.89265-0.26062-1.3414-0.8371-0.316-1.7828-0.15932-2.1017 0.34814-0.82916 1.3198-3.6447 1.1442-3.1896-0.19905 0.44342-1.3087 2.9256-2.008 7.3459-2.0696 3.1555-0.043999 5.0356-1.9798 3.0784-3.1698-0.6936-0.4217-0.59992-0.9031 0.27985-1.438 1.0587-0.64368 1.0777-1.0448 0.095245-2.0113-0.98245-0.96649-0.78525-1.4488 0.98895-2.4181 1.7866-0.97605 1.8835-1.2174 0.49988-1.245-0.944-0.018806-1.7164-0.45954-1.7164-0.97942 0-1.1847 7.1623-4.8387 9.5235-4.8586 1.4921-0.012558 1.5348-0.15507 0.28427-0.95006-0.80914-0.51442-1.0298-0.94859-0.49042-0.96484 0.53946-0.016243 0.34717-0.42398-0.42728-0.90608-1.167-0.72642-1.1884-1.137-0.12512-2.3973 0.70566-0.83644 1.891-1.5208 2.6341-1.5208 0.85312 0 1.3511-1.0878 1.3511-2.9515 0-1.6321 0.41928-2.6965 0.93796-2.3812 0.51587 0.31364 0.69488 1.3162 0.39786 2.2278-0.3508 1.0766-0.24484 1.2592 0.30234 0.52087 1.1462-1.5466 4.5916-1.1266 5.3672 0.65427 0.51144 1.1743 0.77506 1.0834 1.3978-0.48241 0.42212-1.0613 1.4295-2.9463 2.2385-4.1889 0.80902-1.2426 1.5912-3.369 1.7382-4.7253s0.77673-2.9448 1.3994-3.5298c1.3345-1.2538 0.34344 8.2567-1.1962 11.479-0.90704 1.8984-0.89728 1.8994 0.6033 0.056801 0.8389-1.0301 1.5253-2.4412 1.5253-3.1357 0-1.5284 0.47559-1.5642 3.252-0.24477 1.945 0.92432 1.9842 0.89232 0.42593-0.34759-2.5438-2.024-1.9815-7.076 0.58484-5.2535 0.1868 0.13268 1.0483-0.33738 1.9145-1.0445 1.6398-1.3388 5.592-0.72506 5.592 0.86836 0 0.4949 0.45691 0.89982 1.0153 0.89982 0.67566 0 0.65036-0.67078-0.0755-2.0051-0.59994-1.1028-0.85544-2.6085-0.56772-3.346 0.28766-0.73754 0.10098-1.5976-0.41486-1.9112-1.1516-0.70011 0.09375-0.45638 0.9035-0.45638 0.60547 0 7.3494 2.4909 6.3914 4.0581-0.61392 1.0043-0.4689 1.0142 0.74127 0.050808 0.82745-0.65872 1.7949-0.91199 2.1498-0.56282 0.90045 0.88583 0.80478-0.11336-0.27945-2.9188-0.71149-1.8409-0.58398-2.5214 0.55255-2.9505 0.81253-0.30673 1.2428-0.93097 0.95621-1.3872-0.28665-0.45623 0.078979-1.6369 0.81244-2.6237 1.181-1.5888 1.5304-1.6336 3.0524-0.39091 1.5598 1.2735 1.6583 1.2158 1.0648-0.62384-0.41672-1.2916-0.11218-2.4695 0.83929-3.2463 0.82132-0.67056 1.4933-2.3962 1.4933-3.8348 0-3.1504 2.5983-3.5919 3.5636-0.60549 0.57001 1.7635 0.7222 1.8073 1.2404 0.35694 0.41602-1.1642 1.0142-1.3956 2.0226-0.78253 1.2394 0.75357 1.2156 1.1057-0.17718 2.6197-1.4627 1.59-3.1604 5.0726-3.6731 7.5346-0.1105 0.53066-0.61154 1.4516-1.1134 2.0465-0.52429 0.62147-0.56104 2.0164-0.086395 3.2787 0.80734 2.147 0.87097 2.1224 2.7972-1.0817 1.0841-1.8033 3.2324-5.8017 4.774-8.8855 1.5417-3.0838 3.1585-5.823 3.593-6.0872 1.2553-0.76323 0.9154 2.9836-0.3869 4.2648-0.88754 0.87314-0.89358 1.1578-0.024506 1.1578 0.75403 0 0.9516 0.9877 0.57156 2.8571-0.55866 2.7478-0.48892 2.8144 1.8226 1.7413 1.7152-0.79631 2.4035-1.8957 2.4035-3.8392 0-1.5673 0.798-3.3012 1.8798-4.0845 1.7564-1.2717 1.7671-1.4041 0.16348-2.0156-0.944-0.36-1.7155-0.93373-1.7144-1.275 0.003082-0.96991 6.2167-1.1466 7.7247-0.21972 1.7747 1.0909 0.53452 2.9762-1.9578 2.9762-1.1128 0-1.6878 0.43575-1.3288 1.0071 0.34799 0.55391 0.04303 1.7104-0.6777 2.57-1.1764 1.4031-1.0847 1.4446 0.89633 0.40621 2.4487-1.2836 2.6958-0.89606 1.1915 1.8691-0.55841 1.0264-0.66873 1.8596-0.24518 1.8515 1.7045-0.032703 2.9967-1.6104 4.1367-5.0506 1.1749-3.5456 3.9892-5.0558 3.9892-2.1406 0 0.81266 0.77234 1.7579 1.7163 2.1005 0.944 0.34263 2.0406 1.0888 2.437 1.6582 0.4888 0.70229 0.72537 0.65709 0.73554-0.14056 0.008392-0.65541 0.67718-0.92579 1.5112-0.61094 1.2313 0.4648 1.2747 0.83311 0.24518 2.08-1.0722 1.2988-0.98462 1.4168 0.6134 0.82656 1.2754-0.4711 2.4685-0.050777 3.7765 1.3304 1.0517 1.1105 1.7574 2.1149 1.5683 2.232-0.18906 0.11713-2.1793 1.4226-4.4227 2.901-3.9793 2.6224-4.1556 2.649-7.2233 1.0884-4.4482-2.2629-6.3983-0.26566-2.0904 2.1409 1.7036 0.95168 2.8986 2.2509 2.6555 2.8872-0.26398 0.69114 0.13022 0.94092 0.97925 0.6204 1.5941-0.60174 1.9656 1.1548 0.44046 2.082-0.53946 0.32796-0.98077 1.058-0.98077 1.6223 0 0.62497 0.60428 0.53267 1.5459-0.2361 1.2812-1.046 1.6985-1.0249 2.4369 0.12307 1.5186 2.3609 1.029 3.6928-1.9064 5.1861-1.6035 0.81574-3.1129 2.5574-3.487 4.0237-0.46756 1.8327-0.96439 2.2855-1.7067 1.5553-0.74225-0.73019-0.43182-1.88 1.0663-3.9498 2.8886-3.9907 1.9318-6.9528-3.7599-11.641l-4.6189-3.8043-2.8765 1.881c-1.5821 1.0346-4.5761 2.3396-6.6534 2.9-2.0773 0.56045-3.5447 1.2474-3.261 1.5266 0.28378 0.27916-0.3631 2.5249-1.4375 4.9906-1.287 2.9538-1.7535 5.5312-1.3675 7.5557 0.48529 2.5449 0.23419 3.1824-1.462 3.712-1.1264 0.35168-2.4531 1.6877-2.9483 2.969-1.0855 2.8086-1.5947 2.8521-5.295 0.45239-2.8433-1.8438-2.9047-1.8436-5.5642 0.019386-3.6919 2.5861-6.5415 1.1634-10.083-5.0342-2.4461-4.2808-3.0558-4.7739-5.2369-4.2354-1.3576 0.33522-3.1086 1.2393-3.8912 2.0091-0.7825 0.76979-2.2739 1.3996-3.3142 1.3996-2.2064 0-2.2381 0.12566-0.80978 3.2095 0.81885 1.7681 0.77002 2.8925-0.20099 4.6284-0.70544 1.2611-1.1645 3.0527-1.02 3.9814 0.14444 0.92866 0.029175 1.6885-0.25613 1.6885-0.57721 0-6.9672-2.6422-9.6974-4.0098-2.5778-1.2912-3.6361-0.1829-3.653 3.8256-0.020844 4.9528-1.3279 6.7962-3.7654 5.3107-1.5669-0.95489-2.2045-0.7947-3.8403 0.96484-1.0788 1.1604-2.2799 3.1953-2.669 4.5219-0.38913 1.3267-1.5976 3.1056-2.6854 3.9531-1.8948 1.4763-1.9072 1.6472-0.29492 4.0678 1.638 2.4593 1.6003 1.5708-1.4105 6.7476-1.7014 2.9254-3.5257 5.5817-4.054 5.9029-0.52835 0.32119-0.67468 1.47-0.32532 2.5529 0.70548 2.1867-0.86298 3.6194-3.9882 3.643-1.7694 0.013382-1.9844 0.7403-2.195 7.4207-0.18387 5.8338-0.83725 8.6752-3.0779 13.386-2.7715 5.8263-2.797 6.0197-0.99249 7.5396 3.1782 2.677 1.7294 7.1072-1.9487 5.9588-5.5414-1.7302-11.286 5.1173-10.896 12.987 0.039459 0.79598 0.001556 2.7498-0.08429 4.3418s-0.082123 3.98 0.008301 5.3066 0.25156 4.8805 0.35809 7.8974c0.15143 4.2892 0.6749 5.928 2.4004 7.5151 1.2137 1.1164 2.2068 2.4115 2.2068 2.8781 0 1.9546-1.285 3.9007-2.5756 3.9007-1.0398 0-1.197 0.66116-0.63065 2.6533 1.4922 5.249 0.67535 11.021-1.8277 12.914-1.2771 0.96616-1.9369 1.7663-1.4663 1.7781 0.47064 0.011795 0.34131 0.63118-0.28742 1.3764-0.62872 0.74524-0.88065 2.3836-0.55991 3.6408 0.32077 1.2572 0.14706 3.3611-0.38596 4.6753-0.60715 1.4969-0.99243 1.7978-1.0314 0.80553-0.03421-0.87112-1.1655-1.8563-2.5141-2.1893-2.4829-0.61304-2.7854-1.4369-2.5998-7.0813 0.056732-1.7247-0.27411-3.1357-0.73517-3.1357-1.8352 0-2.8626 2.6158-2.3881 6.0799 0.5072 3.7024-1.0245 6.9466-2.7767 5.8813-0.5069-0.30823-1.7224 0.34782-2.701 1.4578-0.97867 1.11-2.3053 2.0183-2.9482 2.0183-0.64285 0-0.88849 0.4462-0.54587 0.99155 0.64435 1.0257-5.3136 7.1446-6.1528 6.3191-0.25986-0.25568-1.1135 0.16574-1.8969 0.93645-1.4946 1.4703-9.6262 2.006-8.7272 0.57494zm-0.2837-56.75c-1.1562-1.9559-1.4354-1.3299-0.48895 1.0964 0.33635 0.86229 0.81816 1.3645 1.0707 1.1161 0.25253-0.24841-0.009277-1.244-0.58173-2.2125zm112.67-132.36c0.80914-0.51441 1.0298-0.93528 0.49039-0.93528-0.53943 0-1.6428 0.42087-2.452 0.93528-0.80911 0.51442-1.0298 0.93529-0.49036 0.93529 0.53943 0 1.6428-0.42087 2.4519-0.93529zm-3.9231 186.07c0-1.1901 0.88019-2.0983 2.3962-2.4727 3.3216-0.82011 5.1228 0.41844 2.8249 1.9425-3.559 2.3607-5.2211 2.5294-5.2211 0.53012zm2.5887-6.4466c-1.1045-1.0866-0.67267-2.2251 0.84399-2.2251 0.80914 0 1.4712 0.40855 1.4712 0.9079 0 1.2166-1.5316 2.088-2.3152 1.3172zm3.6244-15.318c-0.30225-0.77486-0.32242-2.2632-0.044891-3.3073 0.42316-1.5918 0.21378-1.7454-1.2961-0.95041-2.7959 1.472-5.1754 1.1877-4.5023-0.53792 0.33914-0.86948 0.077515-1.4265-0.63062-1.3426-0.66571 0.078888-2.1334-0.15337-3.2615-0.51616-1.6644-0.53523-1.9989-1.3281-1.7742-4.2052 0.15231-1.9501 0.35522-3.7627 0.45096-4.028 0.095703-0.26532 0.13831-0.75919 0.094696-1.0974-0.04364-0.33827 0.32965-2.018 0.82956-3.7327 0.67709-2.3225 0.52454-3.849-0.59814-5.9847-0.82892-1.5768-1.2612-3.4974-0.9606-4.268 0.3006-0.77055 0.036896-3.2754-0.58597-5.5664-1.0303-3.7895-0.9404-4.3683 0.99603-6.413 1.1707-1.2362 2.018-2.9253 1.8829-3.7537-0.16406-1.006 0.65903-1.6083 2.4789-1.814 1.4985-0.16936 2.6149-0.82062 2.481-1.4473-0.44049-2.0604 2.6002-7.4212 4.5558-8.0318 2.4725-0.77199 3.3191-1.6845 7.3375-7.9096 4.3847-6.7925 5.7686-8.058 8.0376-7.3496 1.7113 0.5343 1.8295 0.20984 1.3061-3.5854-1.0049-7.2869-1.3966-8.3733-3.2237-8.9438-5.5964-1.7474-8.802-9.2249-7.1739-16.734 0.75861-3.499 0.64969-5.0508-0.50916-7.2553-0.8244-1.5683-1.2146-2.7236-0.88525-4.0144 0.34586-1.3557 0.15643-2.3082-0.45908-2.3082-0.62668 0-0.96216-1.849-0.8346-4.5998 0.29047-6.2621-3.1346-11.159-11.948-17.083-7.2963-4.9044-10.886-9.0193-6.7388-7.7244 1.7398 0.54321 2.0722 0.37256 1.6054-0.82414-0.38379-0.98386 0.10239-1.725 1.3967-2.1291 1.092-0.34096 2.1083-0.47172 2.2584-0.29062 0.15015 0.18113 1.4415 2.3222 2.8697 4.758 3.4139 5.8224 6.7219 7.3841 10.264 4.8458 2.582-1.8503 2.6085-1.8483 6.6914 0.5056l4.0992 2.3632 0.6257-2.8026c0.37833-1.6945 1.6058-3.2419 3.1045-3.9137 2.1232-0.95168 2.3847-1.5326 1.8228-4.0492-0.8468-3.7929 2.9396-13.436 5.2785-13.443 0.88135-0.00272 3.348-1.0443 5.4814-2.3147l3.8789-2.3097 4.1159 3.3179c5.1534 4.1542 6.0614 7.1838 3.2975 11.002-1.1302 1.5613-1.763 3.3033-1.4063 3.871 0.35666 0.56771-0.08551 1.8301-0.98267 2.8053-1.0757 1.1693-1.2745 1.9899-0.58377 2.4098 0.73871 0.44914 0.74149 1.1989 0.009369 2.5446-0.59598 1.0955-0.76343 3.7083-0.39331 6.1364 0.51871 3.4029 1.1678 4.4418 3.3237 5.3203 1.4735 0.60044 3.5977 2.673 4.7205 4.6057l2.0414 3.514-3.324 6.4934-3.3241 5.3953 2.8905 6.8956c4.1105 9.8061 5.055 13.516 3.5826 14.072-2.4121 0.91058-2.7055 13.64-0.35339 15.332 1.0166 0.73128 1.378 1.9072 1.0108 3.2886-0.39035 1.4685 0.091034 2.7576 1.5182 4.0656 2.7424 2.5134 2.6397 4.3356-0.35294 6.2646l-2.4427 1.5745 1.9995 2.7623c1.0997 1.5193 3.2836 3.5086 4.8531 4.4206 4.4436 2.5822 5.464 6.0741 3.0955 10.592-1.8323 3.4951-8.9105 12.936-12.007 16.014-0.76593 0.76149-3.9861 4.2624-7.156 7.7797-4.9019 5.4393-6.2219 6.3782-8.8311 6.2818-1.6872-0.062393-4.4783 0.60417-6.2024 1.4812-1.7241 0.87706-4.0548 1.5947-5.1794 1.5947s-3.1108 0.68713-4.4137 1.527c-1.3029 0.83984-3.3838 1.6708-4.6242 1.8465-1.2404 0.17577-3.7127 0.76736-5.4941 1.3147-2.6025 0.79958-3.3469 0.71828-3.7884-0.41373zm-4.2516-1.1964c0-0.5181 0.69894-1.2058 1.5532-1.5283 0.95517-0.3606 1.4036-0.14494 1.1646 0.5601-0.48871 1.4423-2.7178 2.2364-2.7178 0.9682zm-18.635-1.6309c0-0.79599 0.64816-1.4472 1.4404-1.4472 0.87738 0 1.2197 0.56566 0.87582 1.4472-0.31049 0.79599-0.95862 1.4472-1.4404 1.4472-0.48169 0-0.87582-0.65126-0.87582-1.4472zm-38.25-127.28c0-1.4765 4.0275-3.4827 6.1639-3.0704 0.65558 0.12653 1.1306-0.52976 1.0557-1.4584-0.074921-0.92866 0.2254-1.6885 0.66739-1.6885 0.44196 0 0.94461-0.94289 1.117-2.0953 0.38864-2.5982 2.7538-3.5462 2.7965-1.1208 0.029419 1.6672 0.10541 1.6727 1.3229 0.095398 1.3486-1.7471 2.569-1.3341 2.569 0.86945 0 1.2766-1.8063 3.3301-5.3752 6.1106-1.707 1.3299-1.7995 1.2952-1.1413-0.42832 0.69852-1.8292 0.66672-1.8315-1.2875-0.091682-1.102 0.98116-2.0038 1.4165-2.0038 0.96755 0-0.449-0.5517-0.14279-1.226 0.68047-1.8186 2.2204-4.6587 2.9702-4.6587 1.2299zm4.4065-6.8246c1.5735-2.3624 1.5622-2.3993-0.41373-1.359-1.4968 0.78805-2.0312 0.78286-2.0312-0.019722 0-0.59901 0.88269-1.3162 1.9615-1.5937 1.0789-0.27754 2.0056-0.9967 2.0594-1.5981 0.053741-0.60142 0.42502-0.008072 0.82501 1.3186 0.39999 1.3266 0.35983 2.8862-0.089264 3.4657-0.44907 0.57948-0.61859 1.2483-0.37671 1.4863 0.24188 0.23796-0.45847 0.49921-1.5563 0.58057-1.91 0.14155-1.9264 0.043251-0.37866-2.2805zm19.007-15.729c1.4354-0.7557 2.0225-0.65857 2.4366 0.40311 0.30005 0.76927 0.11633 1.6597-0.40836 1.9787s-0.7399 0.92067-0.4783 1.3371c0.2616 0.4164-0.6347 1.2548-1.9917 1.863-3.0001 1.3447-0.59827-5.0343 0.44177-5.5818zm10.542-0.4298c-0.7605-2.9807 0.14423-5.4253 2.0078-5.4253 1.0432 0 1.3438 0.95011 1.121 3.5436-0.35702 4.1565-2.2569 5.2991-3.1288 1.8817zm-5.7522-3.0132c0.25778-1.3266 0.8114-2.4121 1.2302-2.4121 1.3455 0 1.8353 2.6235 0.69858 3.7418-1.7588 1.7302-2.433 1.2654-1.9288-1.3297zm4.1631-4.8242c-0.99997-1.1853-0.93295-1.4472 0.3703-1.4472 0.87515 0 1.598-0.54272 1.6063-1.206 0.010651-0.85353 0.27078-0.80861 0.89004 0.15372 0.9321 1.4485 0.36884 3.9468-0.88992 3.9468-0.41565 0-1.3052-0.65126-1.9767-1.4472zm33.748-14.353c-0.81949-2.1008-0.24594-2.6651 1.5804-1.5547 1.1216 0.68193 1.1759 1.1266 0.24893 2.0386-0.92697 0.9119-1.326 0.80635-1.8293-0.48386z" fill="#007fff"/>
</svg>
